<svg xmlns="http://www.w3.org/2000/svg" xmlns:xlink="http://www.w3.org/1999/xlink" width="1000" zoomAndPan="magnify" viewBox="0 0 750 525.000007" height="700" preserveAspectRatio="xMidYMid meet" version="1.0"><defs><g/></defs><g fill="#000000" fill-opacity="1"><g transform="translate(39.142724, 205.857904)"><g><path d="M 22.953125 -43.734375 C 21.117188 -43.734375 19.722656 -43.566406 18.765625 -43.234375 C 17.804688 -42.910156 17.128906 -42.320312 16.734375 -41.46875 C 16.335938 -40.625 16.140625 -39.394531 16.140625 -37.78125 L 16.140625 -6.53125 C 16.140625 -5.050781 16.378906 -3.929688 16.859375 -3.171875 C 17.335938 -2.410156 18.054688 -1.894531 19.015625 -1.625 C 19.984375 -1.363281 21.296875 -1.210938 22.953125 -1.171875 L 22.953125 0 L 2.28125 0 L 2.28125 -1.171875 C 4.03125 -1.210938 5.375 -1.363281 6.3125 -1.625 C 7.25 -1.894531 7.945312 -2.410156 8.40625 -3.171875 C 8.863281 -3.929688 9.09375 -5.078125 9.09375 -6.609375 L 9.09375 -37.78125 C 9.09375 -39.394531 8.882812 -40.613281 8.46875 -41.4375 C 8.050781 -42.269531 7.375 -42.847656 6.4375 -43.171875 C 5.5 -43.503906 4.113281 -43.691406 2.28125 -43.734375 L 2.28125 -44.90625 L 22.953125 -44.90625 Z M 22.953125 -43.734375 "/></g></g></g><g fill="#000000" fill-opacity="1"><g transform="translate(64.310799, 205.857904)"><g><path d="M 11.703125 -24.640625 C 13.972656 -27.085938 15.828125 -28.765625 17.265625 -29.671875 C 18.703125 -30.585938 20.289062 -31.046875 22.03125 -31.046875 C 23.945312 -31.046875 25.492188 -30.535156 26.671875 -29.515625 C 27.847656 -28.492188 28.695312 -27.238281 29.21875 -25.75 C 29.738281 -24.269531 30 -22.8125 30 -21.375 L 30 -6.9375 C 30 -4.707031 30.347656 -3.210938 31.046875 -2.453125 C 31.742188 -1.691406 32.945312 -1.265625 34.65625 -1.171875 L 34.65625 0 L 19.34375 0 L 19.34375 -1.171875 C 20.738281 -1.171875 21.804688 -1.320312 22.546875 -1.625 C 23.296875 -1.9375 23.832031 -2.492188 24.15625 -3.296875 C 24.476562 -4.109375 24.640625 -5.320312 24.640625 -6.9375 L 24.640625 -21.640625 C 24.640625 -23.035156 24.179688 -24.3125 23.265625 -25.46875 C 22.359375 -26.625 21.097656 -27.203125 19.484375 -27.203125 C 18.128906 -27.203125 16.84375 -26.835938 15.625 -26.109375 C 14.40625 -25.390625 13.097656 -24.289062 11.703125 -22.8125 L 11.703125 -6.9375 C 11.703125 -4.664062 12.070312 -3.144531 12.8125 -2.375 C 13.550781 -1.613281 14.835938 -1.210938 16.671875 -1.171875 L 16.671875 0 L 1.640625 0 L 1.640625 -1.171875 C 2.984375 -1.304688 3.984375 -1.546875 4.640625 -1.890625 C 5.296875 -2.242188 5.742188 -2.789062 5.984375 -3.53125 C 6.222656 -4.269531 6.34375 -5.335938 6.34375 -6.734375 L 6.34375 -23.015625 C 6.34375 -24.015625 6.125 -24.882812 5.6875 -25.625 C 5.25 -26.363281 4.550781 -26.734375 3.59375 -26.734375 C 3.15625 -26.734375 2.75 -26.65625 2.375 -26.5 C 2.007812 -26.351562 1.765625 -26.257812 1.640625 -26.21875 L 1.171875 -27.453125 L 10.59375 -31.046875 L 11.703125 -31.046875 Z M 11.703125 -24.640625 "/></g></g></g><g fill="#000000" fill-opacity="1"><g transform="translate(100.395942, 205.857904)"><g><path d="M 10.859375 -39.9375 L 11.890625 -39.9375 L 11.890625 -30.328125 L 18.765625 -30.328125 L 18.765625 -28.3125 L 11.890625 -28.3125 L 11.890625 -7.25 C 11.890625 -6.125 12.21875 -5.113281 12.875 -4.21875 C 13.53125 -3.320312 14.445312 -2.875 15.625 -2.875 C 16.40625 -2.875 17.097656 -3.054688 17.703125 -3.421875 C 18.316406 -3.796875 18.972656 -4.441406 19.671875 -5.359375 L 20.984375 -5.359375 C 19.847656 -3.265625 18.625 -1.691406 17.3125 -0.640625 C 16.007812 0.398438 14.488281 0.921875 12.75 0.921875 C 10.832031 0.921875 9.316406 0.210938 8.203125 -1.203125 C 7.085938 -2.617188 6.53125 -4.550781 6.53125 -7 L 6.53125 -28.3125 L 1.890625 -28.3125 L 1.890625 -29.609375 C 4.117188 -30.523438 5.992188 -31.863281 7.515625 -33.625 C 9.046875 -35.394531 10.160156 -37.5 10.859375 -39.9375 Z M 10.859375 -39.9375 "/></g></g></g><g fill="#000000" fill-opacity="1"><g transform="translate(122.164696, 205.857904)"><g><path d="M 15.359375 -31.046875 C 18.765625 -31.046875 21.519531 -29.910156 23.625 -27.640625 C 25.738281 -25.378906 26.796875 -22.441406 26.796875 -18.828125 L 6.28125 -18.828125 L 6.28125 -17.984375 C 6.28125 -15.671875 6.734375 -13.457031 7.640625 -11.34375 C 8.554688 -9.226562 9.84375 -7.515625 11.5 -6.203125 C 13.15625 -4.898438 15.03125 -4.25 17.125 -4.25 C 21.269531 -4.25 24.171875 -6.554688 25.828125 -11.171875 L 26.796875 -10.65625 C 26.097656 -7.082031 24.660156 -4.257812 22.484375 -2.1875 C 20.304688 -0.113281 17.691406 0.921875 14.640625 0.921875 C 12.378906 0.921875 10.273438 0.332031 8.328125 -0.84375 C 6.390625 -2.019531 4.820312 -3.785156 3.625 -6.140625 C 2.425781 -8.492188 1.828125 -11.347656 1.828125 -14.703125 C 1.828125 -17.929688 2.394531 -20.785156 3.53125 -23.265625 C 4.664062 -25.753906 6.253906 -27.671875 8.296875 -29.015625 C 10.347656 -30.367188 12.703125 -31.046875 15.359375 -31.046875 Z M 13.53125 -28.765625 C 11.695312 -28.765625 10.113281 -28.046875 8.78125 -26.609375 C 7.457031 -25.171875 6.664062 -23.253906 6.40625 -20.859375 L 20.0625 -20.859375 C 19.976562 -23.210938 19.378906 -25.117188 18.265625 -26.578125 C 17.160156 -28.035156 15.582031 -28.765625 13.53125 -28.765625 Z M 13.53125 -28.765625 "/></g></g></g><g fill="#000000" fill-opacity="1"><g transform="translate(150.797474, 205.857904)"><g><path d="M 12.09375 -24.90625 L 12.21875 -24.90625 C 13.351562 -26.914062 14.582031 -28.441406 15.90625 -29.484375 C 17.238281 -30.523438 18.734375 -31.046875 20.390625 -31.046875 C 21.566406 -31.046875 22.523438 -30.6875 23.265625 -29.96875 C 24.015625 -29.25 24.390625 -28.367188 24.390625 -27.328125 C 24.390625 -26.492188 24.09375 -25.796875 23.5 -25.234375 C 22.914062 -24.671875 22.253906 -24.390625 21.515625 -24.390625 C 20.898438 -24.390625 20.394531 -24.507812 20 -24.75 C 19.613281 -24.988281 19.222656 -25.300781 18.828125 -25.6875 C 18.742188 -25.726562 18.59375 -25.859375 18.375 -26.078125 C 18.15625 -26.296875 17.925781 -26.457031 17.6875 -26.5625 C 17.445312 -26.675781 17.195312 -26.734375 16.9375 -26.734375 C 15.925781 -26.734375 15.0625 -26.328125 14.34375 -25.515625 C 13.625 -24.710938 12.875 -23.617188 12.09375 -22.234375 L 12.09375 -6.9375 C 12.09375 -5.226562 12.273438 -3.957031 12.640625 -3.125 C 13.015625 -2.300781 13.59375 -1.769531 14.375 -1.53125 C 15.164062 -1.289062 16.320312 -1.171875 17.84375 -1.171875 L 17.84375 0 L 1.765625 0 L 1.765625 -1.171875 L 2.09375 -1.171875 C 3.707031 -1.171875 4.882812 -1.5625 5.625 -2.34375 C 6.363281 -3.132812 6.734375 -4.578125 6.734375 -6.671875 L 6.734375 -21.578125 C 6.734375 -23.617188 6.515625 -24.957031 6.078125 -25.59375 C 5.640625 -26.226562 4.878906 -26.546875 3.796875 -26.546875 C 3.140625 -26.546875 2.59375 -26.414062 2.15625 -26.15625 L 1.765625 -27.265625 L 10.921875 -31.046875 L 12.09375 -31.046875 Z M 12.09375 -24.90625 "/></g></g></g><g fill="#000000" fill-opacity="1"><g transform="translate(175.965548, 205.857904)"><g><path d="M 11.703125 -24.640625 C 13.972656 -27.085938 15.828125 -28.765625 17.265625 -29.671875 C 18.703125 -30.585938 20.289062 -31.046875 22.03125 -31.046875 C 23.945312 -31.046875 25.492188 -30.535156 26.671875 -29.515625 C 27.847656 -28.492188 28.695312 -27.238281 29.21875 -25.75 C 29.738281 -24.269531 30 -22.8125 30 -21.375 L 30 -6.9375 C 30 -4.707031 30.347656 -3.210938 31.046875 -2.453125 C 31.742188 -1.691406 32.945312 -1.265625 34.65625 -1.171875 L 34.65625 0 L 19.34375 0 L 19.34375 -1.171875 C 20.738281 -1.171875 21.804688 -1.320312 22.546875 -1.625 C 23.296875 -1.9375 23.832031 -2.492188 24.15625 -3.296875 C 24.476562 -4.109375 24.640625 -5.320312 24.640625 -6.9375 L 24.640625 -21.640625 C 24.640625 -23.035156 24.179688 -24.3125 23.265625 -25.46875 C 22.359375 -26.625 21.097656 -27.203125 19.484375 -27.203125 C 18.128906 -27.203125 16.84375 -26.835938 15.625 -26.109375 C 14.40625 -25.390625 13.097656 -24.289062 11.703125 -22.8125 L 11.703125 -6.9375 C 11.703125 -4.664062 12.070312 -3.144531 12.8125 -2.375 C 13.550781 -1.613281 14.835938 -1.210938 16.671875 -1.171875 L 16.671875 0 L 1.640625 0 L 1.640625 -1.171875 C 2.984375 -1.304688 3.984375 -1.546875 4.640625 -1.890625 C 5.296875 -2.242188 5.742188 -2.789062 5.984375 -3.53125 C 6.222656 -4.269531 6.34375 -5.335938 6.34375 -6.734375 L 6.34375 -23.015625 C 6.34375 -24.015625 6.125 -24.882812 5.6875 -25.625 C 5.25 -26.363281 4.550781 -26.734375 3.59375 -26.734375 C 3.15625 -26.734375 2.75 -26.65625 2.375 -26.5 C 2.007812 -26.351562 1.765625 -26.257812 1.640625 -26.21875 L 1.171875 -27.453125 L 10.59375 -31.046875 L 11.703125 -31.046875 Z M 11.703125 -24.640625 "/></g></g></g><g fill="#000000" fill-opacity="1"><g transform="translate(212.050691, 205.857904)"><g><path d="M 15.625 -31.046875 C 22.164062 -31.046875 25.4375 -28.429688 25.4375 -23.203125 L 25.4375 -5.890625 C 25.4375 -4.710938 25.609375 -3.9375 25.953125 -3.5625 C 26.304688 -3.1875 26.765625 -3 27.328125 -3 C 27.984375 -3 28.59375 -3.1875 29.15625 -3.5625 C 29.71875 -3.9375 30.546875 -4.644531 31.640625 -5.6875 L 31.640625 -4.046875 C 29.984375 -2.171875 28.617188 -0.875 27.546875 -0.15625 C 26.484375 0.5625 25.382812 0.921875 24.25 0.921875 C 22.988281 0.921875 21.972656 0.472656 21.203125 -0.421875 C 20.441406 -1.316406 20.0625 -2.632812 20.0625 -4.375 C 18.144531 -2.550781 16.367188 -1.210938 14.734375 -0.359375 C 13.109375 0.492188 11.332031 0.921875 9.40625 0.921875 C 7.488281 0.921875 5.875 0.203125 4.5625 -1.234375 C 3.257812 -2.679688 2.609375 -4.425781 2.609375 -6.46875 C 2.609375 -9.957031 4.460938 -12.660156 8.171875 -14.578125 C 11.703125 -16.453125 15.664062 -18.175781 20.0625 -19.75 L 20.0625 -21.578125 C 20.0625 -23.316406 19.941406 -24.707031 19.703125 -25.75 C 19.460938 -26.800781 18.914062 -27.640625 18.0625 -28.265625 C 17.21875 -28.898438 15.925781 -29.21875 14.1875 -29.21875 C 12.488281 -29.21875 11.222656 -28.800781 10.390625 -27.96875 C 9.566406 -27.144531 9.15625 -26.125 9.15625 -24.90625 L 9.21875 -23.203125 C 9.21875 -22.460938 8.976562 -21.851562 8.5 -21.375 C 8.019531 -20.894531 7.410156 -20.65625 6.671875 -20.65625 C 5.835938 -20.65625 5.160156 -20.894531 4.640625 -21.375 C 4.117188 -21.851562 3.859375 -22.53125 3.859375 -23.40625 C 3.859375 -25.582031 4.878906 -27.398438 6.921875 -28.859375 C 8.972656 -30.316406 11.875 -31.046875 15.625 -31.046875 Z M 8.171875 -8.171875 C 8.171875 -6.691406 8.640625 -5.425781 9.578125 -4.375 C 10.515625 -3.332031 11.679688 -2.8125 13.078125 -2.8125 C 15.296875 -2.8125 17.625 -3.898438 20.0625 -6.078125 L 20.0625 -17.984375 C 17.019531 -16.710938 14.671875 -15.609375 13.015625 -14.671875 C 11.359375 -13.734375 10.132812 -12.765625 9.34375 -11.765625 C 8.5625 -10.765625 8.171875 -9.566406 8.171875 -8.171875 Z M 8.171875 -8.171875 "/></g></g></g><g fill="#000000" fill-opacity="1"><g transform="translate(244.736501, 205.857904)"><g><path d="M 10.859375 -39.9375 L 11.890625 -39.9375 L 11.890625 -30.328125 L 18.765625 -30.328125 L 18.765625 -28.3125 L 11.890625 -28.3125 L 11.890625 -7.25 C 11.890625 -6.125 12.21875 -5.113281 12.875 -4.21875 C 13.53125 -3.320312 14.445312 -2.875 15.625 -2.875 C 16.40625 -2.875 17.097656 -3.054688 17.703125 -3.421875 C 18.316406 -3.796875 18.972656 -4.441406 19.671875 -5.359375 L 20.984375 -5.359375 C 19.847656 -3.265625 18.625 -1.691406 17.3125 -0.640625 C 16.007812 0.398438 14.488281 0.921875 12.75 0.921875 C 10.832031 0.921875 9.316406 0.210938 8.203125 -1.203125 C 7.085938 -2.617188 6.53125 -4.550781 6.53125 -7 L 6.53125 -28.3125 L 1.890625 -28.3125 L 1.890625 -29.609375 C 4.117188 -30.523438 5.992188 -31.863281 7.515625 -33.625 C 9.046875 -35.394531 10.160156 -37.5 10.859375 -39.9375 Z M 10.859375 -39.9375 "/></g></g></g><g fill="#000000" fill-opacity="1"><g transform="translate(266.505255, 205.857904)"><g><path d="M 8.890625 -47.0625 C 9.847656 -47.0625 10.65625 -46.734375 11.3125 -46.078125 C 11.96875 -45.429688 12.296875 -44.648438 12.296875 -43.734375 C 12.296875 -42.773438 11.96875 -41.96875 11.3125 -41.3125 C 10.65625 -40.664062 9.847656 -40.34375 8.890625 -40.34375 C 7.972656 -40.34375 7.1875 -40.664062 6.53125 -41.3125 C 5.882812 -41.96875 5.5625 -42.773438 5.5625 -43.734375 C 5.5625 -44.648438 5.882812 -45.429688 6.53125 -46.078125 C 7.1875 -46.734375 7.972656 -47.0625 8.890625 -47.0625 Z M 11.765625 -6.796875 C 11.765625 -4.660156 12.113281 -3.195312 12.8125 -2.40625 C 13.507812 -1.625 14.644531 -1.210938 16.21875 -1.171875 L 16.21875 0 L 1.5 0 L 1.5 -1.171875 C 3.289062 -1.171875 4.554688 -1.582031 5.296875 -2.40625 C 6.035156 -3.238281 6.40625 -4.75 6.40625 -6.9375 L 6.40625 -22.75 C 6.40625 -23.925781 6.144531 -24.882812 5.625 -25.625 C 5.101562 -26.363281 4.296875 -26.734375 3.203125 -26.734375 C 2.722656 -26.734375 2.285156 -26.625 1.890625 -26.40625 L 1.5 -27.59375 L 10.59375 -31.046875 L 11.765625 -31.046875 Z M 11.765625 -6.796875 "/></g></g></g><g fill="#000000" fill-opacity="1"><g transform="translate(284.220977, 205.857904)"><g><path d="M 18.625 -31.046875 C 21.195312 -31.046875 23.601562 -30.359375 25.84375 -28.984375 C 28.09375 -27.617188 29.878906 -25.789062 31.203125 -23.5 C 32.535156 -21.207031 33.203125 -18.753906 33.203125 -16.140625 C 33.203125 -13.097656 32.484375 -10.265625 31.046875 -7.640625 C 29.609375 -5.023438 27.679688 -2.941406 25.265625 -1.390625 C 22.847656 0.148438 20.265625 0.921875 17.515625 0.921875 C 14.898438 0.921875 12.46875 0.234375 10.21875 -1.140625 C 7.976562 -2.515625 6.203125 -4.367188 4.890625 -6.703125 C 3.585938 -9.035156 2.9375 -11.570312 2.9375 -14.3125 C 2.9375 -17.28125 3.65625 -20.050781 5.09375 -22.625 C 6.53125 -25.195312 8.457031 -27.242188 10.875 -28.765625 C 13.300781 -30.285156 15.882812 -31.046875 18.625 -31.046875 Z M 8.828125 -16.9375 C 8.828125 -14.363281 9.226562 -11.890625 10.03125 -9.515625 C 10.84375 -7.140625 12.007812 -5.1875 13.53125 -3.65625 C 15.0625 -2.132812 16.894531 -1.375 19.03125 -1.375 C 21.507812 -1.375 23.507812 -2.472656 25.03125 -4.671875 C 26.5625 -6.867188 27.328125 -9.78125 27.328125 -13.40625 C 27.328125 -16.28125 26.890625 -18.882812 26.015625 -21.21875 C 25.148438 -23.550781 23.929688 -25.390625 22.359375 -26.734375 C 20.785156 -28.085938 19 -28.765625 17 -28.765625 C 14.507812 -28.765625 12.523438 -27.695312 11.046875 -25.5625 C 9.566406 -23.425781 8.828125 -20.550781 8.828125 -16.9375 Z M 8.828125 -16.9375 "/></g></g></g><g fill="#000000" fill-opacity="1"><g transform="translate(320.30612, 205.857904)"><g><path d="M 11.703125 -24.640625 C 13.972656 -27.085938 15.828125 -28.765625 17.265625 -29.671875 C 18.703125 -30.585938 20.289062 -31.046875 22.03125 -31.046875 C 23.945312 -31.046875 25.492188 -30.535156 26.671875 -29.515625 C 27.847656 -28.492188 28.695312 -27.238281 29.21875 -25.75 C 29.738281 -24.269531 30 -22.8125 30 -21.375 L 30 -6.9375 C 30 -4.707031 30.347656 -3.210938 31.046875 -2.453125 C 31.742188 -1.691406 32.945312 -1.265625 34.65625 -1.171875 L 34.65625 0 L 19.34375 0 L 19.34375 -1.171875 C 20.738281 -1.171875 21.804688 -1.320312 22.546875 -1.625 C 23.296875 -1.9375 23.832031 -2.492188 24.15625 -3.296875 C 24.476562 -4.109375 24.640625 -5.320312 24.640625 -6.9375 L 24.640625 -21.640625 C 24.640625 -23.035156 24.179688 -24.3125 23.265625 -25.46875 C 22.359375 -26.625 21.097656 -27.203125 19.484375 -27.203125 C 18.128906 -27.203125 16.84375 -26.835938 15.625 -26.109375 C 14.40625 -25.390625 13.097656 -24.289062 11.703125 -22.8125 L 11.703125 -6.9375 C 11.703125 -4.664062 12.070312 -3.144531 12.8125 -2.375 C 13.550781 -1.613281 14.835938 -1.210938 16.671875 -1.171875 L 16.671875 0 L 1.640625 0 L 1.640625 -1.171875 C 2.984375 -1.304688 3.984375 -1.546875 4.640625 -1.890625 C 5.296875 -2.242188 5.742188 -2.789062 5.984375 -3.53125 C 6.222656 -4.269531 6.34375 -5.335938 6.34375 -6.734375 L 6.34375 -23.015625 C 6.34375 -24.015625 6.125 -24.882812 5.6875 -25.625 C 5.25 -26.363281 4.550781 -26.734375 3.59375 -26.734375 C 3.15625 -26.734375 2.75 -26.65625 2.375 -26.5 C 2.007812 -26.351562 1.765625 -26.257812 1.640625 -26.21875 L 1.171875 -27.453125 L 10.59375 -31.046875 L 11.703125 -31.046875 Z M 11.703125 -24.640625 "/></g></g></g><g fill="#000000" fill-opacity="1"><g transform="translate(356.391263, 205.857904)"><g><path d="M 15.625 -31.046875 C 22.164062 -31.046875 25.4375 -28.429688 25.4375 -23.203125 L 25.4375 -5.890625 C 25.4375 -4.710938 25.609375 -3.9375 25.953125 -3.5625 C 26.304688 -3.1875 26.765625 -3 27.328125 -3 C 27.984375 -3 28.59375 -3.1875 29.15625 -3.5625 C 29.71875 -3.9375 30.546875 -4.644531 31.640625 -5.6875 L 31.640625 -4.046875 C 29.984375 -2.171875 28.617188 -0.875 27.546875 -0.15625 C 26.484375 0.5625 25.382812 0.921875 24.25 0.921875 C 22.988281 0.921875 21.972656 0.472656 21.203125 -0.421875 C 20.441406 -1.316406 20.0625 -2.632812 20.0625 -4.375 C 18.144531 -2.550781 16.367188 -1.210938 14.734375 -0.359375 C 13.109375 0.492188 11.332031 0.921875 9.40625 0.921875 C 7.488281 0.921875 5.875 0.203125 4.5625 -1.234375 C 3.257812 -2.679688 2.609375 -4.425781 2.609375 -6.46875 C 2.609375 -9.957031 4.460938 -12.660156 8.171875 -14.578125 C 11.703125 -16.453125 15.664062 -18.175781 20.0625 -19.75 L 20.0625 -21.578125 C 20.0625 -23.316406 19.941406 -24.707031 19.703125 -25.75 C 19.460938 -26.800781 18.914062 -27.640625 18.0625 -28.265625 C 17.21875 -28.898438 15.925781 -29.21875 14.1875 -29.21875 C 12.488281 -29.21875 11.222656 -28.800781 10.390625 -27.96875 C 9.566406 -27.144531 9.15625 -26.125 9.15625 -24.90625 L 9.21875 -23.203125 C 9.21875 -22.460938 8.976562 -21.851562 8.5 -21.375 C 8.019531 -20.894531 7.410156 -20.65625 6.671875 -20.65625 C 5.835938 -20.65625 5.160156 -20.894531 4.640625 -21.375 C 4.117188 -21.851562 3.859375 -22.53125 3.859375 -23.40625 C 3.859375 -25.582031 4.878906 -27.398438 6.921875 -28.859375 C 8.972656 -30.316406 11.875 -31.046875 15.625 -31.046875 Z M 8.171875 -8.171875 C 8.171875 -6.691406 8.640625 -5.425781 9.578125 -4.375 C 10.515625 -3.332031 11.679688 -2.8125 13.078125 -2.8125 C 15.296875 -2.8125 17.625 -3.898438 20.0625 -6.078125 L 20.0625 -17.984375 C 17.019531 -16.710938 14.671875 -15.609375 13.015625 -14.671875 C 11.359375 -13.734375 10.132812 -12.765625 9.34375 -11.765625 C 8.5625 -10.765625 8.171875 -9.566406 8.171875 -8.171875 Z M 8.171875 -8.171875 "/></g></g></g><g fill="#000000" fill-opacity="1"><g transform="translate(389.077073, 205.857904)"><g><path d="M 11.828125 -46.875 L 11.828125 -6.859375 C 11.828125 -4.679688 12.144531 -3.1875 12.78125 -2.375 C 13.414062 -1.570312 14.5625 -1.171875 16.21875 -1.171875 L 16.21875 0 L 1.5 0 L 1.5 -1.171875 C 2.71875 -1.171875 3.675781 -1.300781 4.375 -1.5625 C 5.070312 -1.832031 5.59375 -2.378906 5.9375 -3.203125 C 6.289062 -4.035156 6.46875 -5.253906 6.46875 -6.859375 L 6.46875 -37.78125 C 6.46875 -40.707031 5.445312 -42.171875 3.40625 -42.171875 C 2.832031 -42.171875 2.328125 -42.0625 1.890625 -41.84375 L 1.5 -42.953125 L 10.65625 -46.875 Z M 11.828125 -46.875 "/></g></g></g><g fill="#000000" fill-opacity="1"><g transform="translate(406.792771, 205.857904)"><g/></g></g><g fill="#000000" fill-opacity="1"><g transform="translate(423.135665, 205.857904)"><g><path d="M 27.265625 -43.734375 C 24.992188 -43.734375 23.367188 -43.363281 22.390625 -42.625 C 21.410156 -41.882812 20.921875 -40.46875 20.921875 -38.375 L 20.921875 -13.53125 C 20.921875 -9.476562 19.914062 -6.046875 17.90625 -3.234375 C 15.90625 -0.421875 12.898438 0.984375 8.890625 0.984375 C 6.710938 0.984375 4.925781 0.515625 3.53125 -0.421875 C 2.132812 -1.359375 1.4375 -2.523438 1.4375 -3.921875 C 1.4375 -4.878906 1.75 -5.671875 2.375 -6.296875 C 3.007812 -6.929688 3.785156 -7.25 4.703125 -7.25 C 5.660156 -7.25 6.398438 -6.976562 6.921875 -6.4375 C 7.453125 -5.894531 8.039062 -5.078125 8.6875 -3.984375 C 9.125 -3.117188 9.550781 -2.46875 9.96875 -2.03125 C 10.382812 -1.59375 10.894531 -1.375 11.5 -1.375 C 12.25 -1.375 12.828125 -1.804688 13.234375 -2.671875 C 13.648438 -3.546875 13.859375 -5.25 13.859375 -7.78125 L 13.859375 -38.4375 C 13.859375 -40.488281 13.320312 -41.882812 12.25 -42.625 C 11.1875 -43.363281 9.5 -43.734375 7.1875 -43.734375 L 7.1875 -44.90625 L 27.265625 -44.90625 Z M 27.265625 -43.734375 "/></g></g></g><g fill="#000000" fill-opacity="1"><g transform="translate(451.768442, 205.857904)"><g><path d="M 18.625 -31.046875 C 21.195312 -31.046875 23.601562 -30.359375 25.84375 -28.984375 C 28.09375 -27.617188 29.878906 -25.789062 31.203125 -23.5 C 32.535156 -21.207031 33.203125 -18.753906 33.203125 -16.140625 C 33.203125 -13.097656 32.484375 -10.265625 31.046875 -7.640625 C 29.609375 -5.023438 27.679688 -2.941406 25.265625 -1.390625 C 22.847656 0.148438 20.265625 0.921875 17.515625 0.921875 C 14.898438 0.921875 12.46875 0.234375 10.21875 -1.140625 C 7.976562 -2.515625 6.203125 -4.367188 4.890625 -6.703125 C 3.585938 -9.035156 2.9375 -11.570312 2.9375 -14.3125 C 2.9375 -17.28125 3.65625 -20.050781 5.09375 -22.625 C 6.53125 -25.195312 8.457031 -27.242188 10.875 -28.765625 C 13.300781 -30.285156 15.882812 -31.046875 18.625 -31.046875 Z M 8.828125 -16.9375 C 8.828125 -14.363281 9.226562 -11.890625 10.03125 -9.515625 C 10.84375 -7.140625 12.007812 -5.1875 13.53125 -3.65625 C 15.0625 -2.132812 16.894531 -1.375 19.03125 -1.375 C 21.507812 -1.375 23.507812 -2.472656 25.03125 -4.671875 C 26.5625 -6.867188 27.328125 -9.78125 27.328125 -13.40625 C 27.328125 -16.28125 26.890625 -18.882812 26.015625 -21.21875 C 25.148438 -23.550781 23.929688 -25.390625 22.359375 -26.734375 C 20.785156 -28.085938 19 -28.765625 17 -28.765625 C 14.507812 -28.765625 12.523438 -27.695312 11.046875 -25.5625 C 9.566406 -23.425781 8.828125 -20.550781 8.828125 -16.9375 Z M 8.828125 -16.9375 "/></g></g></g><g fill="#000000" fill-opacity="1"><g transform="translate(487.853608, 205.857904)"><g><path d="M 12.03125 -8.625 C 12.03125 -7.0625 12.507812 -5.773438 13.46875 -4.765625 C 14.425781 -3.765625 15.601562 -3.265625 17 -3.265625 C 18.257812 -3.265625 19.566406 -3.601562 20.921875 -4.28125 C 22.273438 -4.957031 23.5625 -5.945312 24.78125 -7.25 L 24.78125 -25.359375 C 24.78125 -27.890625 23.296875 -29.15625 20.328125 -29.15625 L 19.671875 -29.15625 L 19.671875 -30.328125 L 30.140625 -30.328125 L 30.140625 -7.0625 C 30.140625 -6.28125 30.367188 -5.484375 30.828125 -4.671875 C 31.285156 -3.867188 32.015625 -3.46875 33.015625 -3.46875 C 33.578125 -3.46875 34.296875 -3.640625 35.171875 -3.984375 L 35.171875 -2.75 L 26.015625 0.78125 L 24.78125 0.78125 L 24.78125 -5.625 L 24.640625 -5.625 C 21.109375 -1.257812 17.710938 0.921875 14.453125 0.921875 C 12.796875 0.921875 11.378906 0.492188 10.203125 -0.359375 C 9.023438 -1.210938 8.140625 -2.289062 7.546875 -3.59375 C 6.960938 -4.90625 6.671875 -6.234375 6.671875 -7.578125 L 6.671875 -24.84375 C 6.671875 -26.539062 6.285156 -27.679688 5.515625 -28.265625 C 4.753906 -28.859375 3.570312 -29.15625 1.96875 -29.15625 L 1.171875 -29.15625 L 1.171875 -30.328125 L 12.03125 -30.328125 Z M 12.03125 -8.625 "/></g></g></g><g fill="#000000" fill-opacity="1"><g transform="translate(523.938773, 205.857904)"><g><path d="M 12.09375 -24.90625 L 12.21875 -24.90625 C 13.351562 -26.914062 14.582031 -28.441406 15.90625 -29.484375 C 17.238281 -30.523438 18.734375 -31.046875 20.390625 -31.046875 C 21.566406 -31.046875 22.523438 -30.6875 23.265625 -29.96875 C 24.015625 -29.25 24.390625 -28.367188 24.390625 -27.328125 C 24.390625 -26.492188 24.09375 -25.796875 23.5 -25.234375 C 22.914062 -24.671875 22.253906 -24.390625 21.515625 -24.390625 C 20.898438 -24.390625 20.394531 -24.507812 20 -24.75 C 19.613281 -24.988281 19.222656 -25.300781 18.828125 -25.6875 C 18.742188 -25.726562 18.59375 -25.859375 18.375 -26.078125 C 18.15625 -26.296875 17.925781 -26.457031 17.6875 -26.5625 C 17.445312 -26.675781 17.195312 -26.734375 16.9375 -26.734375 C 15.925781 -26.734375 15.0625 -26.328125 14.34375 -25.515625 C 13.625 -24.710938 12.875 -23.617188 12.09375 -22.234375 L 12.09375 -6.9375 C 12.09375 -5.226562 12.273438 -3.957031 12.640625 -3.125 C 13.015625 -2.300781 13.59375 -1.769531 14.375 -1.53125 C 15.164062 -1.289062 16.320312 -1.171875 17.84375 -1.171875 L 17.84375 0 L 1.765625 0 L 1.765625 -1.171875 L 2.09375 -1.171875 C 3.707031 -1.171875 4.882812 -1.5625 5.625 -2.34375 C 6.363281 -3.132812 6.734375 -4.578125 6.734375 -6.671875 L 6.734375 -21.578125 C 6.734375 -23.617188 6.515625 -24.957031 6.078125 -25.59375 C 5.640625 -26.226562 4.878906 -26.546875 3.796875 -26.546875 C 3.140625 -26.546875 2.59375 -26.414062 2.15625 -26.15625 L 1.765625 -27.265625 L 10.921875 -31.046875 L 12.09375 -31.046875 Z M 12.09375 -24.90625 "/></g></g></g><g fill="#000000" fill-opacity="1"><g transform="translate(549.106836, 205.857904)"><g><path d="M 11.703125 -24.640625 C 13.972656 -27.085938 15.828125 -28.765625 17.265625 -29.671875 C 18.703125 -30.585938 20.289062 -31.046875 22.03125 -31.046875 C 23.945312 -31.046875 25.492188 -30.535156 26.671875 -29.515625 C 27.847656 -28.492188 28.695312 -27.238281 29.21875 -25.75 C 29.738281 -24.269531 30 -22.8125 30 -21.375 L 30 -6.9375 C 30 -4.707031 30.347656 -3.210938 31.046875 -2.453125 C 31.742188 -1.691406 32.945312 -1.265625 34.65625 -1.171875 L 34.65625 0 L 19.34375 0 L 19.34375 -1.171875 C 20.738281 -1.171875 21.804688 -1.320312 22.546875 -1.625 C 23.296875 -1.9375 23.832031 -2.492188 24.15625 -3.296875 C 24.476562 -4.109375 24.640625 -5.320312 24.640625 -6.9375 L 24.640625 -21.640625 C 24.640625 -23.035156 24.179688 -24.3125 23.265625 -25.46875 C 22.359375 -26.625 21.097656 -27.203125 19.484375 -27.203125 C 18.128906 -27.203125 16.84375 -26.835938 15.625 -26.109375 C 14.40625 -25.390625 13.097656 -24.289062 11.703125 -22.8125 L 11.703125 -6.9375 C 11.703125 -4.664062 12.070312 -3.144531 12.8125 -2.375 C 13.550781 -1.613281 14.835938 -1.210938 16.671875 -1.171875 L 16.671875 0 L 1.640625 0 L 1.640625 -1.171875 C 2.984375 -1.304688 3.984375 -1.546875 4.640625 -1.890625 C 5.296875 -2.242188 5.742188 -2.789062 5.984375 -3.53125 C 6.222656 -4.269531 6.34375 -5.335938 6.34375 -6.734375 L 6.34375 -23.015625 C 6.34375 -24.015625 6.125 -24.882812 5.6875 -25.625 C 5.25 -26.363281 4.550781 -26.734375 3.59375 -26.734375 C 3.15625 -26.734375 2.75 -26.65625 2.375 -26.5 C 2.007812 -26.351562 1.765625 -26.257812 1.640625 -26.21875 L 1.171875 -27.453125 L 10.59375 -31.046875 L 11.703125 -31.046875 Z M 11.703125 -24.640625 "/></g></g></g><g fill="#000000" fill-opacity="1"><g transform="translate(585.192002, 205.857904)"><g><path d="M 15.625 -31.046875 C 22.164062 -31.046875 25.4375 -28.429688 25.4375 -23.203125 L 25.4375 -5.890625 C 25.4375 -4.710938 25.609375 -3.9375 25.953125 -3.5625 C 26.304688 -3.1875 26.765625 -3 27.328125 -3 C 27.984375 -3 28.59375 -3.1875 29.15625 -3.5625 C 29.71875 -3.9375 30.546875 -4.644531 31.640625 -5.6875 L 31.640625 -4.046875 C 29.984375 -2.171875 28.617188 -0.875 27.546875 -0.15625 C 26.484375 0.5625 25.382812 0.921875 24.25 0.921875 C 22.988281 0.921875 21.972656 0.472656 21.203125 -0.421875 C 20.441406 -1.316406 20.0625 -2.632812 20.0625 -4.375 C 18.144531 -2.550781 16.367188 -1.210938 14.734375 -0.359375 C 13.109375 0.492188 11.332031 0.921875 9.40625 0.921875 C 7.488281 0.921875 5.875 0.203125 4.5625 -1.234375 C 3.257812 -2.679688 2.609375 -4.425781 2.609375 -6.46875 C 2.609375 -9.957031 4.460938 -12.660156 8.171875 -14.578125 C 11.703125 -16.453125 15.664062 -18.175781 20.0625 -19.75 L 20.0625 -21.578125 C 20.0625 -23.316406 19.941406 -24.707031 19.703125 -25.75 C 19.460938 -26.800781 18.914062 -27.640625 18.0625 -28.265625 C 17.21875 -28.898438 15.925781 -29.21875 14.1875 -29.21875 C 12.488281 -29.21875 11.222656 -28.800781 10.390625 -27.96875 C 9.566406 -27.144531 9.15625 -26.125 9.15625 -24.90625 L 9.21875 -23.203125 C 9.21875 -22.460938 8.976562 -21.851562 8.5 -21.375 C 8.019531 -20.894531 7.410156 -20.65625 6.671875 -20.65625 C 5.835938 -20.65625 5.160156 -20.894531 4.640625 -21.375 C 4.117188 -21.851562 3.859375 -22.53125 3.859375 -23.40625 C 3.859375 -25.582031 4.878906 -27.398438 6.921875 -28.859375 C 8.972656 -30.316406 11.875 -31.046875 15.625 -31.046875 Z M 8.171875 -8.171875 C 8.171875 -6.691406 8.640625 -5.425781 9.578125 -4.375 C 10.515625 -3.332031 11.679688 -2.8125 13.078125 -2.8125 C 15.296875 -2.8125 17.625 -3.898438 20.0625 -6.078125 L 20.0625 -17.984375 C 17.019531 -16.710938 14.671875 -15.609375 13.015625 -14.671875 C 11.359375 -13.734375 10.132812 -12.765625 9.34375 -11.765625 C 8.5625 -10.765625 8.171875 -9.566406 8.171875 -8.171875 Z M 8.171875 -8.171875 "/></g></g></g><g fill="#000000" fill-opacity="1"><g transform="translate(617.877789, 205.857904)"><g><path d="M 11.828125 -46.875 L 11.828125 -6.859375 C 11.828125 -4.679688 12.144531 -3.1875 12.78125 -2.375 C 13.414062 -1.570312 14.5625 -1.171875 16.21875 -1.171875 L 16.21875 0 L 1.5 0 L 1.5 -1.171875 C 2.71875 -1.171875 3.675781 -1.300781 4.375 -1.5625 C 5.070312 -1.832031 5.59375 -2.378906 5.9375 -3.203125 C 6.289062 -4.035156 6.46875 -5.253906 6.46875 -6.859375 L 6.46875 -37.78125 C 6.46875 -40.707031 5.445312 -42.171875 3.40625 -42.171875 C 2.832031 -42.171875 2.328125 -42.0625 1.890625 -41.84375 L 1.5 -42.953125 L 10.65625 -46.875 Z M 11.828125 -46.875 "/></g></g></g><g fill="#000000" fill-opacity="1"><g transform="translate(635.593511, 205.857904)"><g/></g></g><g fill="#000000" fill-opacity="1"><g transform="translate(651.936404, 205.857904)"><g><path d="M 18.625 -31.046875 C 21.195312 -31.046875 23.601562 -30.359375 25.84375 -28.984375 C 28.09375 -27.617188 29.878906 -25.789062 31.203125 -23.5 C 32.535156 -21.207031 33.203125 -18.753906 33.203125 -16.140625 C 33.203125 -13.097656 32.484375 -10.265625 31.046875 -7.640625 C 29.609375 -5.023438 27.679688 -2.941406 25.265625 -1.390625 C 22.847656 0.148438 20.265625 0.921875 17.515625 0.921875 C 14.898438 0.921875 12.46875 0.234375 10.21875 -1.140625 C 7.976562 -2.515625 6.203125 -4.367188 4.890625 -6.703125 C 3.585938 -9.035156 2.9375 -11.570312 2.9375 -14.3125 C 2.9375 -17.28125 3.65625 -20.050781 5.09375 -22.625 C 6.53125 -25.195312 8.457031 -27.242188 10.875 -28.765625 C 13.300781 -30.285156 15.882812 -31.046875 18.625 -31.046875 Z M 8.828125 -16.9375 C 8.828125 -14.363281 9.226562 -11.890625 10.03125 -9.515625 C 10.84375 -7.140625 12.007812 -5.1875 13.53125 -3.65625 C 15.0625 -2.132812 16.894531 -1.375 19.03125 -1.375 C 21.507812 -1.375 23.507812 -2.472656 25.03125 -4.671875 C 26.5625 -6.867188 27.328125 -9.78125 27.328125 -13.40625 C 27.328125 -16.28125 26.890625 -18.882812 26.015625 -21.21875 C 25.148438 -23.550781 23.929688 -25.390625 22.359375 -26.734375 C 20.785156 -28.085938 19 -28.765625 17 -28.765625 C 14.507812 -28.765625 12.523438 -27.695312 11.046875 -25.5625 C 9.566406 -23.425781 8.828125 -20.550781 8.828125 -16.9375 Z M 8.828125 -16.9375 "/></g></g></g><g fill="#000000" fill-opacity="1"><g transform="translate(688.021524, 205.857904)"><g><path d="M 18.5 -46.875 C 19.9375 -46.875 21.296875 -46.625 22.578125 -46.125 C 23.867188 -45.625 24.894531 -44.945312 25.65625 -44.09375 C 26.414062 -43.25 26.796875 -42.367188 26.796875 -41.453125 C 26.796875 -40.796875 26.535156 -40.191406 26.015625 -39.640625 C 25.492188 -39.097656 24.882812 -38.828125 24.1875 -38.828125 C 23.445312 -38.828125 22.847656 -39.046875 22.390625 -39.484375 C 21.929688 -39.921875 21.398438 -40.578125 20.796875 -41.453125 C 20.097656 -42.492188 19.429688 -43.273438 18.796875 -43.796875 C 18.160156 -44.316406 17.300781 -44.578125 16.21875 -44.578125 C 14.945312 -44.578125 13.90625 -44.097656 13.09375 -43.140625 C 12.289062 -42.179688 11.890625 -40.394531 11.890625 -37.78125 L 11.890625 -30.328125 L 18.046875 -30.328125 L 18.046875 -28.3125 L 11.890625 -28.3125 L 11.890625 -6.9375 C 11.890625 -5.226562 12.0625 -3.972656 12.40625 -3.171875 C 12.757812 -2.367188 13.304688 -1.832031 14.046875 -1.5625 C 14.796875 -1.300781 15.867188 -1.171875 17.265625 -1.171875 L 17.265625 0 L 1.5625 0 L 1.5625 -1.171875 C 2.832031 -1.171875 3.800781 -1.3125 4.46875 -1.59375 C 5.144531 -1.882812 5.65625 -2.429688 6 -3.234375 C 6.351562 -4.046875 6.53125 -5.28125 6.53125 -6.9375 L 6.53125 -28.3125 L 2.28125 -28.3125 L 2.28125 -30.328125 L 6.53125 -30.328125 L 6.53125 -33.46875 C 6.53125 -36.175781 7.109375 -38.539062 8.265625 -40.5625 C 9.421875 -42.59375 10.914062 -44.148438 12.75 -45.234375 C 14.582031 -46.328125 16.5 -46.875 18.5 -46.875 Z M 18.5 -46.875 "/></g></g></g><g fill="#000000" fill-opacity="1"><g transform="translate(88.794242, 276.223871)"><g><path d="M 22.953125 -43.734375 C 21.117188 -43.734375 19.722656 -43.566406 18.765625 -43.234375 C 17.804688 -42.910156 17.128906 -42.320312 16.734375 -41.46875 C 16.335938 -40.625 16.140625 -39.394531 16.140625 -37.78125 L 16.140625 -6.53125 C 16.140625 -5.050781 16.378906 -3.929688 16.859375 -3.171875 C 17.335938 -2.410156 18.054688 -1.894531 19.015625 -1.625 C 19.984375 -1.363281 21.296875 -1.210938 22.953125 -1.171875 L 22.953125 0 L 2.28125 0 L 2.28125 -1.171875 C 4.03125 -1.210938 5.375 -1.363281 6.3125 -1.625 C 7.25 -1.894531 7.945312 -2.410156 8.40625 -3.171875 C 8.863281 -3.929688 9.09375 -5.078125 9.09375 -6.609375 L 9.09375 -37.78125 C 9.09375 -39.394531 8.882812 -40.613281 8.46875 -41.4375 C 8.050781 -42.269531 7.375 -42.847656 6.4375 -43.171875 C 5.5 -43.503906 4.113281 -43.691406 2.28125 -43.734375 L 2.28125 -44.90625 L 22.953125 -44.90625 Z M 22.953125 -43.734375 "/></g></g></g><g fill="#000000" fill-opacity="1"><g transform="translate(113.962317, 276.223871)"><g><path d="M 11.703125 -24.640625 C 13.972656 -27.085938 15.828125 -28.765625 17.265625 -29.671875 C 18.703125 -30.585938 20.289062 -31.046875 22.03125 -31.046875 C 23.945312 -31.046875 25.492188 -30.535156 26.671875 -29.515625 C 27.847656 -28.492188 28.695312 -27.238281 29.21875 -25.75 C 29.738281 -24.269531 30 -22.8125 30 -21.375 L 30 -6.9375 C 30 -4.707031 30.347656 -3.210938 31.046875 -2.453125 C 31.742188 -1.691406 32.945312 -1.265625 34.65625 -1.171875 L 34.65625 0 L 19.34375 0 L 19.34375 -1.171875 C 20.738281 -1.171875 21.804688 -1.320312 22.546875 -1.625 C 23.296875 -1.9375 23.832031 -2.492188 24.15625 -3.296875 C 24.476562 -4.109375 24.640625 -5.320312 24.640625 -6.9375 L 24.640625 -21.640625 C 24.640625 -23.035156 24.179688 -24.3125 23.265625 -25.46875 C 22.359375 -26.625 21.097656 -27.203125 19.484375 -27.203125 C 18.128906 -27.203125 16.84375 -26.835938 15.625 -26.109375 C 14.40625 -25.390625 13.097656 -24.289062 11.703125 -22.8125 L 11.703125 -6.9375 C 11.703125 -4.664062 12.070312 -3.144531 12.8125 -2.375 C 13.550781 -1.613281 14.835938 -1.210938 16.671875 -1.171875 L 16.671875 0 L 1.640625 0 L 1.640625 -1.171875 C 2.984375 -1.304688 3.984375 -1.546875 4.640625 -1.890625 C 5.296875 -2.242188 5.742188 -2.789062 5.984375 -3.53125 C 6.222656 -4.269531 6.34375 -5.335938 6.34375 -6.734375 L 6.34375 -23.015625 C 6.34375 -24.015625 6.125 -24.882812 5.6875 -25.625 C 5.25 -26.363281 4.550781 -26.734375 3.59375 -26.734375 C 3.15625 -26.734375 2.75 -26.65625 2.375 -26.5 C 2.007812 -26.351562 1.765625 -26.257812 1.640625 -26.21875 L 1.171875 -27.453125 L 10.59375 -31.046875 L 11.703125 -31.046875 Z M 11.703125 -24.640625 "/></g></g></g><g fill="#000000" fill-opacity="1"><g transform="translate(150.04746, 276.223871)"><g><path d="M 11.703125 -24.640625 C 13.972656 -27.085938 15.828125 -28.765625 17.265625 -29.671875 C 18.703125 -30.585938 20.289062 -31.046875 22.03125 -31.046875 C 23.945312 -31.046875 25.492188 -30.535156 26.671875 -29.515625 C 27.847656 -28.492188 28.695312 -27.238281 29.21875 -25.75 C 29.738281 -24.269531 30 -22.8125 30 -21.375 L 30 -6.9375 C 30 -4.707031 30.347656 -3.210938 31.046875 -2.453125 C 31.742188 -1.691406 32.945312 -1.265625 34.65625 -1.171875 L 34.65625 0 L 19.34375 0 L 19.34375 -1.171875 C 20.738281 -1.171875 21.804688 -1.320312 22.546875 -1.625 C 23.296875 -1.9375 23.832031 -2.492188 24.15625 -3.296875 C 24.476562 -4.109375 24.640625 -5.320312 24.640625 -6.9375 L 24.640625 -21.640625 C 24.640625 -23.035156 24.179688 -24.3125 23.265625 -25.46875 C 22.359375 -26.625 21.097656 -27.203125 19.484375 -27.203125 C 18.128906 -27.203125 16.84375 -26.835938 15.625 -26.109375 C 14.40625 -25.390625 13.097656 -24.289062 11.703125 -22.8125 L 11.703125 -6.9375 C 11.703125 -4.664062 12.070312 -3.144531 12.8125 -2.375 C 13.550781 -1.613281 14.835938 -1.210938 16.671875 -1.171875 L 16.671875 0 L 1.640625 0 L 1.640625 -1.171875 C 2.984375 -1.304688 3.984375 -1.546875 4.640625 -1.890625 C 5.296875 -2.242188 5.742188 -2.789062 5.984375 -3.53125 C 6.222656 -4.269531 6.34375 -5.335938 6.34375 -6.734375 L 6.34375 -23.015625 C 6.34375 -24.015625 6.125 -24.882812 5.6875 -25.625 C 5.25 -26.363281 4.550781 -26.734375 3.59375 -26.734375 C 3.15625 -26.734375 2.75 -26.65625 2.375 -26.5 C 2.007812 -26.351562 1.765625 -26.257812 1.640625 -26.21875 L 1.171875 -27.453125 L 10.59375 -31.046875 L 11.703125 -31.046875 Z M 11.703125 -24.640625 "/></g></g></g><g fill="#000000" fill-opacity="1"><g transform="translate(186.132603, 276.223871)"><g><path d="M 18.625 -31.046875 C 21.195312 -31.046875 23.601562 -30.359375 25.84375 -28.984375 C 28.09375 -27.617188 29.878906 -25.789062 31.203125 -23.5 C 32.535156 -21.207031 33.203125 -18.753906 33.203125 -16.140625 C 33.203125 -13.097656 32.484375 -10.265625 31.046875 -7.640625 C 29.609375 -5.023438 27.679688 -2.941406 25.265625 -1.390625 C 22.847656 0.148438 20.265625 0.921875 17.515625 0.921875 C 14.898438 0.921875 12.46875 0.234375 10.21875 -1.140625 C 7.976562 -2.515625 6.203125 -4.367188 4.890625 -6.703125 C 3.585938 -9.035156 2.9375 -11.570312 2.9375 -14.3125 C 2.9375 -17.28125 3.65625 -20.050781 5.09375 -22.625 C 6.53125 -25.195312 8.457031 -27.242188 10.875 -28.765625 C 13.300781 -30.285156 15.882812 -31.046875 18.625 -31.046875 Z M 8.828125 -16.9375 C 8.828125 -14.363281 9.226562 -11.890625 10.03125 -9.515625 C 10.84375 -7.140625 12.007812 -5.1875 13.53125 -3.65625 C 15.0625 -2.132812 16.894531 -1.375 19.03125 -1.375 C 21.507812 -1.375 23.507812 -2.472656 25.03125 -4.671875 C 26.5625 -6.867188 27.328125 -9.78125 27.328125 -13.40625 C 27.328125 -16.28125 26.890625 -18.882812 26.015625 -21.21875 C 25.148438 -23.550781 23.929688 -25.390625 22.359375 -26.734375 C 20.785156 -28.085938 19 -28.765625 17 -28.765625 C 14.507812 -28.765625 12.523438 -27.695312 11.046875 -25.5625 C 9.566406 -23.425781 8.828125 -20.550781 8.828125 -16.9375 Z M 8.828125 -16.9375 "/></g></g></g><g fill="#000000" fill-opacity="1"><g transform="translate(222.217746, 276.223871)"><g><path d="M 14.453125 -29.15625 C 13.316406 -29.070312 12.484375 -28.820312 11.953125 -28.40625 C 11.429688 -27.988281 11.171875 -27.367188 11.171875 -26.546875 C 11.171875 -25.847656 11.28125 -25.160156 11.5 -24.484375 C 11.71875 -23.804688 11.9375 -23.21875 12.15625 -22.71875 C 12.375 -22.21875 12.503906 -21.898438 12.546875 -21.765625 L 18.4375 -7.390625 L 25.4375 -24.640625 C 25.863281 -25.734375 26.078125 -26.539062 26.078125 -27.0625 C 26.078125 -27.800781 25.828125 -28.3125 25.328125 -28.59375 C 24.828125 -28.882812 23.96875 -29.070312 22.75 -29.15625 L 22.75 -30.328125 L 31.84375 -30.328125 L 31.84375 -29.15625 C 30.75 -29.113281 29.941406 -28.722656 29.421875 -27.984375 C 28.898438 -27.242188 28.351562 -26.128906 27.78125 -24.640625 L 17.578125 0.84375 L 16.28125 0.84375 L 8.5625 -18.109375 C 7.207031 -21.421875 6.179688 -23.773438 5.484375 -25.171875 C 4.796875 -26.566406 4.113281 -27.554688 3.4375 -28.140625 C 2.757812 -28.734375 1.894531 -29.070312 0.84375 -29.15625 L 0.84375 -30.328125 L 14.453125 -30.328125 Z M 14.453125 -29.15625 "/></g></g></g><g fill="#000000" fill-opacity="1"><g transform="translate(254.903556, 276.223871)"><g><path d="M 15.625 -31.046875 C 22.164062 -31.046875 25.4375 -28.429688 25.4375 -23.203125 L 25.4375 -5.890625 C 25.4375 -4.710938 25.609375 -3.9375 25.953125 -3.5625 C 26.304688 -3.1875 26.765625 -3 27.328125 -3 C 27.984375 -3 28.59375 -3.1875 29.15625 -3.5625 C 29.71875 -3.9375 30.546875 -4.644531 31.640625 -5.6875 L 31.640625 -4.046875 C 29.984375 -2.171875 28.617188 -0.875 27.546875 -0.15625 C 26.484375 0.5625 25.382812 0.921875 24.25 0.921875 C 22.988281 0.921875 21.972656 0.472656 21.203125 -0.421875 C 20.441406 -1.316406 20.0625 -2.632812 20.0625 -4.375 C 18.144531 -2.550781 16.367188 -1.210938 14.734375 -0.359375 C 13.109375 0.492188 11.332031 0.921875 9.40625 0.921875 C 7.488281 0.921875 5.875 0.203125 4.5625 -1.234375 C 3.257812 -2.679688 2.609375 -4.425781 2.609375 -6.46875 C 2.609375 -9.957031 4.460938 -12.660156 8.171875 -14.578125 C 11.703125 -16.453125 15.664062 -18.175781 20.0625 -19.75 L 20.0625 -21.578125 C 20.0625 -23.316406 19.941406 -24.707031 19.703125 -25.75 C 19.460938 -26.800781 18.914062 -27.640625 18.0625 -28.265625 C 17.21875 -28.898438 15.925781 -29.21875 14.1875 -29.21875 C 12.488281 -29.21875 11.222656 -28.800781 10.390625 -27.96875 C 9.566406 -27.144531 9.15625 -26.125 9.15625 -24.90625 L 9.21875 -23.203125 C 9.21875 -22.460938 8.976562 -21.851562 8.5 -21.375 C 8.019531 -20.894531 7.410156 -20.65625 6.671875 -20.65625 C 5.835938 -20.65625 5.160156 -20.894531 4.640625 -21.375 C 4.117188 -21.851562 3.859375 -22.53125 3.859375 -23.40625 C 3.859375 -25.582031 4.878906 -27.398438 6.921875 -28.859375 C 8.972656 -30.316406 11.875 -31.046875 15.625 -31.046875 Z M 8.171875 -8.171875 C 8.171875 -6.691406 8.640625 -5.425781 9.578125 -4.375 C 10.515625 -3.332031 11.679688 -2.8125 13.078125 -2.8125 C 15.296875 -2.8125 17.625 -3.898438 20.0625 -6.078125 L 20.0625 -17.984375 C 17.019531 -16.710938 14.671875 -15.609375 13.015625 -14.671875 C 11.359375 -13.734375 10.132812 -12.765625 9.34375 -11.765625 C 8.5625 -10.765625 8.171875 -9.566406 8.171875 -8.171875 Z M 8.171875 -8.171875 "/></g></g></g><g fill="#000000" fill-opacity="1"><g transform="translate(287.589377, 276.223871)"><g><path d="M 10.859375 -39.9375 L 11.890625 -39.9375 L 11.890625 -30.328125 L 18.765625 -30.328125 L 18.765625 -28.3125 L 11.890625 -28.3125 L 11.890625 -7.25 C 11.890625 -6.125 12.21875 -5.113281 12.875 -4.21875 C 13.53125 -3.320312 14.445312 -2.875 15.625 -2.875 C 16.40625 -2.875 17.097656 -3.054688 17.703125 -3.421875 C 18.316406 -3.796875 18.972656 -4.441406 19.671875 -5.359375 L 20.984375 -5.359375 C 19.847656 -3.265625 18.625 -1.691406 17.3125 -0.640625 C 16.007812 0.398438 14.488281 0.921875 12.75 0.921875 C 10.832031 0.921875 9.316406 0.210938 8.203125 -1.203125 C 7.085938 -2.617188 6.53125 -4.550781 6.53125 -7 L 6.53125 -28.3125 L 1.890625 -28.3125 L 1.890625 -29.609375 C 4.117188 -30.523438 5.992188 -31.863281 7.515625 -33.625 C 9.046875 -35.394531 10.160156 -37.5 10.859375 -39.9375 Z M 10.859375 -39.9375 "/></g></g></g><g fill="#000000" fill-opacity="1"><g transform="translate(309.358131, 276.223871)"><g><path d="M 8.890625 -47.0625 C 9.847656 -47.0625 10.65625 -46.734375 11.3125 -46.078125 C 11.96875 -45.429688 12.296875 -44.648438 12.296875 -43.734375 C 12.296875 -42.773438 11.96875 -41.96875 11.3125 -41.3125 C 10.65625 -40.664062 9.847656 -40.34375 8.890625 -40.34375 C 7.972656 -40.34375 7.1875 -40.664062 6.53125 -41.3125 C 5.882812 -41.96875 5.5625 -42.773438 5.5625 -43.734375 C 5.5625 -44.648438 5.882812 -45.429688 6.53125 -46.078125 C 7.1875 -46.734375 7.972656 -47.0625 8.890625 -47.0625 Z M 11.765625 -6.796875 C 11.765625 -4.660156 12.113281 -3.195312 12.8125 -2.40625 C 13.507812 -1.625 14.644531 -1.210938 16.21875 -1.171875 L 16.21875 0 L 1.5 0 L 1.5 -1.171875 C 3.289062 -1.171875 4.554688 -1.582031 5.296875 -2.40625 C 6.035156 -3.238281 6.40625 -4.75 6.40625 -6.9375 L 6.40625 -22.75 C 6.40625 -23.925781 6.144531 -24.882812 5.625 -25.625 C 5.101562 -26.363281 4.296875 -26.734375 3.203125 -26.734375 C 2.722656 -26.734375 2.285156 -26.625 1.890625 -26.40625 L 1.5 -27.59375 L 10.59375 -31.046875 L 11.765625 -31.046875 Z M 11.765625 -6.796875 "/></g></g></g><g fill="#000000" fill-opacity="1"><g transform="translate(327.07383, 276.223871)"><g><path d="M 14.453125 -29.15625 C 13.316406 -29.070312 12.484375 -28.820312 11.953125 -28.40625 C 11.429688 -27.988281 11.171875 -27.367188 11.171875 -26.546875 C 11.171875 -25.847656 11.28125 -25.160156 11.5 -24.484375 C 11.71875 -23.804688 11.9375 -23.21875 12.15625 -22.71875 C 12.375 -22.21875 12.503906 -21.898438 12.546875 -21.765625 L 18.4375 -7.390625 L 25.4375 -24.640625 C 25.863281 -25.734375 26.078125 -26.539062 26.078125 -27.0625 C 26.078125 -27.800781 25.828125 -28.3125 25.328125 -28.59375 C 24.828125 -28.882812 23.96875 -29.070312 22.75 -29.15625 L 22.75 -30.328125 L 31.84375 -30.328125 L 31.84375 -29.15625 C 30.75 -29.113281 29.941406 -28.722656 29.421875 -27.984375 C 28.898438 -27.242188 28.351562 -26.128906 27.78125 -24.640625 L 17.578125 0.84375 L 16.28125 0.84375 L 8.5625 -18.109375 C 7.207031 -21.421875 6.179688 -23.773438 5.484375 -25.171875 C 4.796875 -26.566406 4.113281 -27.554688 3.4375 -28.140625 C 2.757812 -28.734375 1.894531 -29.070312 0.84375 -29.15625 L 0.84375 -30.328125 L 14.453125 -30.328125 Z M 14.453125 -29.15625 "/></g></g></g><g fill="#000000" fill-opacity="1"><g transform="translate(359.75964, 276.223871)"><g><path d="M 15.359375 -31.046875 C 18.765625 -31.046875 21.519531 -29.910156 23.625 -27.640625 C 25.738281 -25.378906 26.796875 -22.441406 26.796875 -18.828125 L 6.28125 -18.828125 L 6.28125 -17.984375 C 6.28125 -15.671875 6.734375 -13.457031 7.640625 -11.34375 C 8.554688 -9.226562 9.84375 -7.515625 11.5 -6.203125 C 13.15625 -4.898438 15.03125 -4.25 17.125 -4.25 C 21.269531 -4.25 24.171875 -6.554688 25.828125 -11.171875 L 26.796875 -10.65625 C 26.097656 -7.082031 24.660156 -4.257812 22.484375 -2.1875 C 20.304688 -0.113281 17.691406 0.921875 14.640625 0.921875 C 12.378906 0.921875 10.273438 0.332031 8.328125 -0.84375 C 6.390625 -2.019531 4.820312 -3.785156 3.625 -6.140625 C 2.425781 -8.492188 1.828125 -11.347656 1.828125 -14.703125 C 1.828125 -17.929688 2.394531 -20.785156 3.53125 -23.265625 C 4.664062 -25.753906 6.253906 -27.671875 8.296875 -29.015625 C 10.347656 -30.367188 12.703125 -31.046875 15.359375 -31.046875 Z M 13.53125 -28.765625 C 11.695312 -28.765625 10.113281 -28.046875 8.78125 -26.609375 C 7.457031 -25.171875 6.664062 -23.253906 6.40625 -20.859375 L 20.0625 -20.859375 C 19.976562 -23.210938 19.378906 -25.117188 18.265625 -26.578125 C 17.160156 -28.035156 15.582031 -28.765625 13.53125 -28.765625 Z M 13.53125 -28.765625 "/></g></g></g><g fill="#000000" fill-opacity="1"><g transform="translate(388.392417, 276.223871)"><g/></g></g><g fill="#000000" fill-opacity="1"><g transform="translate(404.735334, 276.223871)"><g><path d="M 38.703125 -33.203125 C 38.703125 -30.460938 37.765625 -28.097656 35.890625 -26.109375 C 34.015625 -24.128906 31.160156 -22.660156 27.328125 -21.703125 L 37.71875 -8.828125 C 38.988281 -7.253906 40.054688 -6 40.921875 -5.0625 C 41.796875 -4.125 42.875 -3.273438 44.15625 -2.515625 C 45.445312 -1.753906 46.875 -1.304688 48.4375 -1.171875 L 48.4375 0 L 36.734375 0 L 19.8125 -21.046875 L 15.5 -21.046875 L 15.5 -6.46875 C 15.5 -4.550781 15.988281 -3.1875 16.96875 -2.375 C 17.945312 -1.570312 19.484375 -1.171875 21.578125 -1.171875 L 21.828125 -1.171875 L 21.828125 0 L 2.21875 0 L 2.21875 -1.171875 C 4.3125 -1.171875 5.867188 -1.539062 6.890625 -2.28125 C 7.921875 -3.03125 8.4375 -4.363281 8.4375 -6.28125 L 8.4375 -38.765625 C 8.4375 -40.503906 7.921875 -41.765625 6.890625 -42.546875 C 5.867188 -43.335938 4.3125 -43.734375 2.21875 -43.734375 L 2.21875 -44.90625 L 23.203125 -44.90625 C 27.472656 -44.90625 31.125 -43.945312 34.15625 -42.03125 C 37.1875 -40.113281 38.703125 -37.171875 38.703125 -33.203125 Z M 15.5 -41.453125 L 15.5 -23.28125 L 17.125 -23.28125 C 21.53125 -23.28125 24.863281 -24.140625 27.125 -25.859375 C 29.394531 -27.578125 30.53125 -29.960938 30.53125 -33.015625 C 30.53125 -35.671875 29.664062 -37.9375 27.9375 -39.8125 C 26.21875 -41.6875 23.789062 -42.625 20.65625 -42.625 C 18.957031 -42.625 17.238281 -42.234375 15.5 -41.453125 Z M 15.5 -41.453125 "/></g></g></g><g fill="#000000" fill-opacity="1"><g transform="translate(455.136842, 276.223871)"><g><path d="M 15.359375 -31.046875 C 18.765625 -31.046875 21.519531 -29.910156 23.625 -27.640625 C 25.738281 -25.378906 26.796875 -22.441406 26.796875 -18.828125 L 6.28125 -18.828125 L 6.28125 -17.984375 C 6.28125 -15.671875 6.734375 -13.457031 7.640625 -11.34375 C 8.554688 -9.226562 9.84375 -7.515625 11.5 -6.203125 C 13.15625 -4.898438 15.03125 -4.25 17.125 -4.25 C 21.269531 -4.25 24.171875 -6.554688 25.828125 -11.171875 L 26.796875 -10.65625 C 26.097656 -7.082031 24.660156 -4.257812 22.484375 -2.1875 C 20.304688 -0.113281 17.691406 0.921875 14.640625 0.921875 C 12.378906 0.921875 10.273438 0.332031 8.328125 -0.84375 C 6.390625 -2.019531 4.820312 -3.785156 3.625 -6.140625 C 2.425781 -8.492188 1.828125 -11.347656 1.828125 -14.703125 C 1.828125 -17.929688 2.394531 -20.785156 3.53125 -23.265625 C 4.664062 -25.753906 6.253906 -27.671875 8.296875 -29.015625 C 10.347656 -30.367188 12.703125 -31.046875 15.359375 -31.046875 Z M 13.53125 -28.765625 C 11.695312 -28.765625 10.113281 -28.046875 8.78125 -26.609375 C 7.457031 -25.171875 6.664062 -23.253906 6.40625 -20.859375 L 20.0625 -20.859375 C 19.976562 -23.210938 19.378906 -25.117188 18.265625 -26.578125 C 17.160156 -28.035156 15.582031 -28.765625 13.53125 -28.765625 Z M 13.53125 -28.765625 "/></g></g></g><g fill="#000000" fill-opacity="1"><g transform="translate(483.76962, 276.223871)"><g><path d="M 12.296875 -31.046875 C 13.554688 -31.046875 14.835938 -30.832031 16.140625 -30.40625 C 17.054688 -30.09375 17.800781 -29.9375 18.375 -29.9375 C 18.757812 -29.9375 19.171875 -30.066406 19.609375 -30.328125 L 20.796875 -30.328125 L 20.796875 -21.109375 L 19.609375 -21.109375 C 19.265625 -23.515625 18.414062 -25.46875 17.0625 -26.96875 C 15.707031 -28.46875 14.070312 -29.21875 12.15625 -29.21875 C 10.632812 -29.21875 9.382812 -28.847656 8.40625 -28.109375 C 7.425781 -27.367188 6.9375 -26.367188 6.9375 -25.109375 C 6.9375 -24.097656 7.207031 -23.234375 7.75 -22.515625 C 8.289062 -21.796875 9.050781 -21.128906 10.03125 -20.515625 C 11.007812 -19.910156 12.546875 -19.066406 14.640625 -17.984375 C 17.347656 -16.546875 19.421875 -15.128906 20.859375 -13.734375 C 22.296875 -12.335938 23.015625 -10.460938 23.015625 -8.109375 C 23.015625 -6.015625 22.476562 -4.289062 21.40625 -2.9375 C 20.34375 -1.59375 19.054688 -0.613281 17.546875 0 C 16.046875 0.613281 14.617188 0.921875 13.265625 0.921875 C 11.960938 0.921875 10.195312 0.613281 7.96875 0 C 6.96875 -0.300781 6.296875 -0.453125 5.953125 -0.453125 C 5.378906 -0.453125 4.984375 -0.300781 4.765625 0 L 3.40625 0 L 3.40625 -10.203125 L 4.515625 -10.203125 C 4.816406 -7.492188 5.796875 -5.300781 7.453125 -3.625 C 9.109375 -1.945312 11.070312 -1.109375 13.34375 -1.109375 C 14.6875 -1.109375 15.859375 -1.539062 16.859375 -2.40625 C 17.867188 -3.28125 18.375 -4.375 18.375 -5.6875 C 18.375 -7.207031 17.9375 -8.40625 17.0625 -9.28125 C 16.1875 -10.15625 15.210938 -10.90625 14.140625 -11.53125 C 13.078125 -12.164062 12.375 -12.570312 12.03125 -12.75 C 11.851562 -12.875 11.242188 -13.222656 10.203125 -13.796875 C 8.628906 -14.671875 7.375 -15.441406 6.4375 -16.109375 C 5.5 -16.785156 4.710938 -17.664062 4.078125 -18.75 C 3.453125 -19.84375 3.140625 -21.195312 3.140625 -22.8125 C 3.140625 -25.257812 4 -27.242188 5.71875 -28.765625 C 7.4375 -30.285156 9.628906 -31.046875 12.296875 -31.046875 Z M 12.296875 -31.046875 "/></g></g></g><g fill="#000000" fill-opacity="1"><g transform="translate(508.937684, 276.223871)"><g><path d="M 15.359375 -31.046875 C 18.765625 -31.046875 21.519531 -29.910156 23.625 -27.640625 C 25.738281 -25.378906 26.796875 -22.441406 26.796875 -18.828125 L 6.28125 -18.828125 L 6.28125 -17.984375 C 6.28125 -15.671875 6.734375 -13.457031 7.640625 -11.34375 C 8.554688 -9.226562 9.84375 -7.515625 11.5 -6.203125 C 13.15625 -4.898438 15.03125 -4.25 17.125 -4.25 C 21.269531 -4.25 24.171875 -6.554688 25.828125 -11.171875 L 26.796875 -10.65625 C 26.097656 -7.082031 24.660156 -4.257812 22.484375 -2.1875 C 20.304688 -0.113281 17.691406 0.921875 14.640625 0.921875 C 12.378906 0.921875 10.273438 0.332031 8.328125 -0.84375 C 6.390625 -2.019531 4.820312 -3.785156 3.625 -6.140625 C 2.425781 -8.492188 1.828125 -11.347656 1.828125 -14.703125 C 1.828125 -17.929688 2.394531 -20.785156 3.53125 -23.265625 C 4.664062 -25.753906 6.253906 -27.671875 8.296875 -29.015625 C 10.347656 -30.367188 12.703125 -31.046875 15.359375 -31.046875 Z M 13.53125 -28.765625 C 11.695312 -28.765625 10.113281 -28.046875 8.78125 -26.609375 C 7.457031 -25.171875 6.664062 -23.253906 6.40625 -20.859375 L 20.0625 -20.859375 C 19.976562 -23.210938 19.378906 -25.117188 18.265625 -26.578125 C 17.160156 -28.035156 15.582031 -28.765625 13.53125 -28.765625 Z M 13.53125 -28.765625 "/></g></g></g><g fill="#000000" fill-opacity="1"><g transform="translate(537.570461, 276.223871)"><g><path d="M 15.625 -31.046875 C 22.164062 -31.046875 25.4375 -28.429688 25.4375 -23.203125 L 25.4375 -5.890625 C 25.4375 -4.710938 25.609375 -3.9375 25.953125 -3.5625 C 26.304688 -3.1875 26.765625 -3 27.328125 -3 C 27.984375 -3 28.59375 -3.1875 29.15625 -3.5625 C 29.71875 -3.9375 30.546875 -4.644531 31.640625 -5.6875 L 31.640625 -4.046875 C 29.984375 -2.171875 28.617188 -0.875 27.546875 -0.15625 C 26.484375 0.5625 25.382812 0.921875 24.25 0.921875 C 22.988281 0.921875 21.972656 0.472656 21.203125 -0.421875 C 20.441406 -1.316406 20.0625 -2.632812 20.0625 -4.375 C 18.144531 -2.550781 16.367188 -1.210938 14.734375 -0.359375 C 13.109375 0.492188 11.332031 0.921875 9.40625 0.921875 C 7.488281 0.921875 5.875 0.203125 4.5625 -1.234375 C 3.257812 -2.679688 2.609375 -4.425781 2.609375 -6.46875 C 2.609375 -9.957031 4.460938 -12.660156 8.171875 -14.578125 C 11.703125 -16.453125 15.664062 -18.175781 20.0625 -19.75 L 20.0625 -21.578125 C 20.0625 -23.316406 19.941406 -24.707031 19.703125 -25.75 C 19.460938 -26.800781 18.914062 -27.640625 18.0625 -28.265625 C 17.21875 -28.898438 15.925781 -29.21875 14.1875 -29.21875 C 12.488281 -29.21875 11.222656 -28.800781 10.390625 -27.96875 C 9.566406 -27.144531 9.15625 -26.125 9.15625 -24.90625 L 9.21875 -23.203125 C 9.21875 -22.460938 8.976562 -21.851562 8.5 -21.375 C 8.019531 -20.894531 7.410156 -20.65625 6.671875 -20.65625 C 5.835938 -20.65625 5.160156 -20.894531 4.640625 -21.375 C 4.117188 -21.851562 3.859375 -22.53125 3.859375 -23.40625 C 3.859375 -25.582031 4.878906 -27.398438 6.921875 -28.859375 C 8.972656 -30.316406 11.875 -31.046875 15.625 -31.046875 Z M 8.171875 -8.171875 C 8.171875 -6.691406 8.640625 -5.425781 9.578125 -4.375 C 10.515625 -3.332031 11.679688 -2.8125 13.078125 -2.8125 C 15.296875 -2.8125 17.625 -3.898438 20.0625 -6.078125 L 20.0625 -17.984375 C 17.019531 -16.710938 14.671875 -15.609375 13.015625 -14.671875 C 11.359375 -13.734375 10.132812 -12.765625 9.34375 -11.765625 C 8.5625 -10.765625 8.171875 -9.566406 8.171875 -8.171875 Z M 8.171875 -8.171875 "/></g></g></g><g fill="#000000" fill-opacity="1"><g transform="translate(570.256249, 276.223871)"><g><path d="M 12.09375 -24.90625 L 12.21875 -24.90625 C 13.351562 -26.914062 14.582031 -28.441406 15.90625 -29.484375 C 17.238281 -30.523438 18.734375 -31.046875 20.390625 -31.046875 C 21.566406 -31.046875 22.523438 -30.6875 23.265625 -29.96875 C 24.015625 -29.25 24.390625 -28.367188 24.390625 -27.328125 C 24.390625 -26.492188 24.09375 -25.796875 23.5 -25.234375 C 22.914062 -24.671875 22.253906 -24.390625 21.515625 -24.390625 C 20.898438 -24.390625 20.394531 -24.507812 20 -24.75 C 19.613281 -24.988281 19.222656 -25.300781 18.828125 -25.6875 C 18.742188 -25.726562 18.59375 -25.859375 18.375 -26.078125 C 18.15625 -26.296875 17.925781 -26.457031 17.6875 -26.5625 C 17.445312 -26.675781 17.195312 -26.734375 16.9375 -26.734375 C 15.925781 -26.734375 15.0625 -26.328125 14.34375 -25.515625 C 13.625 -24.710938 12.875 -23.617188 12.09375 -22.234375 L 12.09375 -6.9375 C 12.09375 -5.226562 12.273438 -3.957031 12.640625 -3.125 C 13.015625 -2.300781 13.59375 -1.769531 14.375 -1.53125 C 15.164062 -1.289062 16.320312 -1.171875 17.84375 -1.171875 L 17.84375 0 L 1.765625 0 L 1.765625 -1.171875 L 2.09375 -1.171875 C 3.707031 -1.171875 4.882812 -1.5625 5.625 -2.34375 C 6.363281 -3.132812 6.734375 -4.578125 6.734375 -6.671875 L 6.734375 -21.578125 C 6.734375 -23.617188 6.515625 -24.957031 6.078125 -25.59375 C 5.640625 -26.226562 4.878906 -26.546875 3.796875 -26.546875 C 3.140625 -26.546875 2.59375 -26.414062 2.15625 -26.15625 L 1.765625 -27.265625 L 10.921875 -31.046875 L 12.09375 -31.046875 Z M 12.09375 -24.90625 "/></g></g></g><g fill="#000000" fill-opacity="1"><g transform="translate(595.424312, 276.223871)"><g><path d="M 16.46875 -31.046875 C 18.34375 -31.046875 20.085938 -30.71875 21.703125 -30.0625 C 23.316406 -29.414062 24.59375 -28.554688 25.53125 -27.484375 C 26.46875 -26.421875 26.9375 -25.28125 26.9375 -24.0625 C 26.9375 -23.269531 26.640625 -22.613281 26.046875 -22.09375 C 25.460938 -21.570312 24.710938 -21.3125 23.796875 -21.3125 C 21.703125 -21.3125 20.546875 -22.488281 20.328125 -24.84375 C 20.242188 -25.9375 19.804688 -26.914062 19.015625 -27.78125 C 18.234375 -28.65625 17.015625 -29.09375 15.359375 -29.09375 C 12.785156 -29.09375 10.710938 -28.066406 9.140625 -26.015625 C 7.578125 -23.972656 6.796875 -21.25 6.796875 -17.84375 C 6.796875 -13.789062 7.753906 -10.53125 9.671875 -8.0625 C 11.585938 -5.601562 14.140625 -4.375 17.328125 -4.375 C 19.679688 -4.375 21.648438 -5.023438 23.234375 -6.328125 C 24.828125 -7.640625 25.972656 -9.453125 26.671875 -11.765625 L 27.71875 -11.3125 C 26.84375 -7.644531 25.238281 -4.6875 22.90625 -2.4375 C 20.582031 -0.195312 17.9375 0.921875 14.96875 0.921875 C 12.4375 0.921875 10.144531 0.242188 8.09375 -1.109375 C 6.050781 -2.460938 4.453125 -4.328125 3.296875 -6.703125 C 2.140625 -9.078125 1.5625 -11.769531 1.5625 -14.78125 C 1.5625 -17.914062 2.191406 -20.710938 3.453125 -23.171875 C 4.722656 -25.640625 6.488281 -27.566406 8.75 -28.953125 C 11.019531 -30.347656 13.59375 -31.046875 16.46875 -31.046875 Z M 16.46875 -31.046875 "/></g></g></g><g fill="#000000" fill-opacity="1"><g transform="translate(624.05709, 276.223871)"><g><path d="M 11.765625 -24.640625 L 11.890625 -24.640625 C 13.335938 -26.609375 14.972656 -28.164062 16.796875 -29.3125 C 18.628906 -30.46875 20.441406 -31.046875 22.234375 -31.046875 C 24.796875 -31.046875 26.742188 -30.078125 28.078125 -28.140625 C 29.410156 -26.203125 30.078125 -23.816406 30.078125 -20.984375 L 30.078125 -7 C 30.078125 -5.34375 30.25 -4.097656 30.59375 -3.265625 C 30.945312 -2.441406 31.457031 -1.882812 32.125 -1.59375 C 32.800781 -1.3125 33.773438 -1.171875 35.046875 -1.171875 L 35.046875 0 L 19.875 0 L 19.875 -1.171875 C 21.050781 -1.171875 21.976562 -1.300781 22.65625 -1.5625 C 23.332031 -1.832031 23.84375 -2.378906 24.1875 -3.203125 C 24.539062 -4.035156 24.71875 -5.28125 24.71875 -6.9375 L 24.71875 -21.828125 C 24.71875 -23.222656 24.269531 -24.441406 23.375 -25.484375 C 22.476562 -26.535156 21.203125 -27.0625 19.546875 -27.0625 C 18.191406 -27.0625 16.914062 -26.742188 15.71875 -26.109375 C 14.519531 -25.484375 13.203125 -24.453125 11.765625 -23.015625 L 11.765625 -6.9375 C 11.765625 -5.226562 11.925781 -3.972656 12.25 -3.171875 C 12.582031 -2.367188 13.109375 -1.832031 13.828125 -1.5625 C 14.546875 -1.300781 15.601562 -1.171875 17 -1.171875 L 17 0 L 1.640625 0 L 1.640625 -1.171875 C 2.816406 -1.171875 3.738281 -1.3125 4.40625 -1.59375 C 5.082031 -1.882812 5.582031 -2.453125 5.90625 -3.296875 C 6.238281 -4.148438 6.40625 -5.382812 6.40625 -7 L 6.40625 -37.71875 C 6.40625 -39.550781 6.117188 -40.757812 5.546875 -41.34375 C 4.984375 -41.9375 4.269531 -42.234375 3.40625 -42.234375 C 2.789062 -42.234375 2.203125 -42.101562 1.640625 -41.84375 L 1.234375 -42.953125 L 10.59375 -46.875 L 11.765625 -46.875 Z M 11.765625 -24.640625 "/></g></g></g><g fill="#000000" fill-opacity="1"><g transform="translate(171.850884, 346.589839)"><g><path d="M 8.890625 -47.0625 C 9.847656 -47.0625 10.65625 -46.734375 11.3125 -46.078125 C 11.96875 -45.429688 12.296875 -44.648438 12.296875 -43.734375 C 12.296875 -42.773438 11.96875 -41.96875 11.3125 -41.3125 C 10.65625 -40.664062 9.847656 -40.34375 8.890625 -40.34375 C 7.972656 -40.34375 7.1875 -40.664062 6.53125 -41.3125 C 5.882812 -41.96875 5.5625 -42.773438 5.5625 -43.734375 C 5.5625 -44.648438 5.882812 -45.429688 6.53125 -46.078125 C 7.1875 -46.734375 7.972656 -47.0625 8.890625 -47.0625 Z M 11.765625 -6.796875 C 11.765625 -4.660156 12.113281 -3.195312 12.8125 -2.40625 C 13.507812 -1.625 14.644531 -1.210938 16.21875 -1.171875 L 16.21875 0 L 1.5 0 L 1.5 -1.171875 C 3.289062 -1.171875 4.554688 -1.582031 5.296875 -2.40625 C 6.035156 -3.238281 6.40625 -4.75 6.40625 -6.9375 L 6.40625 -22.75 C 6.40625 -23.925781 6.144531 -24.882812 5.625 -25.625 C 5.101562 -26.363281 4.296875 -26.734375 3.203125 -26.734375 C 2.722656 -26.734375 2.285156 -26.625 1.890625 -26.40625 L 1.5 -27.59375 L 10.59375 -31.046875 L 11.765625 -31.046875 Z M 11.765625 -6.796875 "/></g></g></g><g fill="#000000" fill-opacity="1"><g transform="translate(189.566594, 346.589839)"><g><path d="M 11.703125 -24.640625 C 13.972656 -27.085938 15.828125 -28.765625 17.265625 -29.671875 C 18.703125 -30.585938 20.289062 -31.046875 22.03125 -31.046875 C 23.945312 -31.046875 25.492188 -30.535156 26.671875 -29.515625 C 27.847656 -28.492188 28.695312 -27.238281 29.21875 -25.75 C 29.738281 -24.269531 30 -22.8125 30 -21.375 L 30 -6.9375 C 30 -4.707031 30.347656 -3.210938 31.046875 -2.453125 C 31.742188 -1.691406 32.945312 -1.265625 34.65625 -1.171875 L 34.65625 0 L 19.34375 0 L 19.34375 -1.171875 C 20.738281 -1.171875 21.804688 -1.320312 22.546875 -1.625 C 23.296875 -1.9375 23.832031 -2.492188 24.15625 -3.296875 C 24.476562 -4.109375 24.640625 -5.320312 24.640625 -6.9375 L 24.640625 -21.640625 C 24.640625 -23.035156 24.179688 -24.3125 23.265625 -25.46875 C 22.359375 -26.625 21.097656 -27.203125 19.484375 -27.203125 C 18.128906 -27.203125 16.84375 -26.835938 15.625 -26.109375 C 14.40625 -25.390625 13.097656 -24.289062 11.703125 -22.8125 L 11.703125 -6.9375 C 11.703125 -4.664062 12.070312 -3.144531 12.8125 -2.375 C 13.550781 -1.613281 14.835938 -1.210938 16.671875 -1.171875 L 16.671875 0 L 1.640625 0 L 1.640625 -1.171875 C 2.984375 -1.304688 3.984375 -1.546875 4.640625 -1.890625 C 5.296875 -2.242188 5.742188 -2.789062 5.984375 -3.53125 C 6.222656 -4.269531 6.34375 -5.335938 6.34375 -6.734375 L 6.34375 -23.015625 C 6.34375 -24.015625 6.125 -24.882812 5.6875 -25.625 C 5.25 -26.363281 4.550781 -26.734375 3.59375 -26.734375 C 3.15625 -26.734375 2.75 -26.65625 2.375 -26.5 C 2.007812 -26.351562 1.765625 -26.257812 1.640625 -26.21875 L 1.171875 -27.453125 L 10.59375 -31.046875 L 11.703125 -31.046875 Z M 11.703125 -24.640625 "/></g></g></g><g fill="#000000" fill-opacity="1"><g transform="translate(225.651737, 346.589839)"><g/></g></g><g fill="#000000" fill-opacity="1"><g transform="translate(241.994642, 346.589839)"><g><path d="M 38.5 -34.96875 L 37.390625 -34.96875 C 36.953125 -37.457031 36.144531 -39.300781 34.96875 -40.5 C 33.789062 -41.695312 32.160156 -42.296875 30.078125 -42.296875 L 15.890625 -42.296875 L 15.890625 -24.96875 L 27.515625 -24.96875 C 29.609375 -24.96875 31.09375 -25.488281 31.96875 -26.53125 C 32.84375 -27.582031 33.300781 -29.242188 33.34375 -31.515625 L 34.515625 -31.515625 L 34.515625 -15.6875 L 33.34375 -15.6875 C 33.34375 -17.957031 32.90625 -19.632812 32.03125 -20.71875 C 31.15625 -21.8125 29.609375 -22.359375 27.390625 -22.359375 L 15.890625 -22.359375 L 15.890625 -5.953125 C 15.890625 -3.722656 16.757812 -2.609375 18.5 -2.609375 L 30 -2.609375 C 32.40625 -2.609375 34.519531 -3.335938 36.34375 -4.796875 C 38.175781 -6.265625 39.660156 -8.390625 40.796875 -11.171875 L 42.171875 -11.171875 L 38.5 0 L 2.359375 0 L 2.359375 -1.171875 C 4.617188 -1.171875 6.257812 -1.550781 7.28125 -2.3125 C 8.3125 -3.082031 8.828125 -4.515625 8.828125 -6.609375 L 8.828125 -38.765625 C 8.828125 -40.503906 8.3125 -41.765625 7.28125 -42.546875 C 6.257812 -43.335938 4.617188 -43.734375 2.359375 -43.734375 L 2.359375 -44.90625 L 37.984375 -44.90625 Z M 38.5 -34.96875 "/></g></g></g><g fill="#000000" fill-opacity="1"><g transform="translate(285.59752, 346.589839)"><g><path d="M 11.703125 -24.640625 C 13.972656 -27.085938 15.828125 -28.765625 17.265625 -29.671875 C 18.703125 -30.585938 20.289062 -31.046875 22.03125 -31.046875 C 23.945312 -31.046875 25.492188 -30.535156 26.671875 -29.515625 C 27.847656 -28.492188 28.695312 -27.238281 29.21875 -25.75 C 29.738281 -24.269531 30 -22.8125 30 -21.375 L 30 -6.9375 C 30 -4.707031 30.347656 -3.210938 31.046875 -2.453125 C 31.742188 -1.691406 32.945312 -1.265625 34.65625 -1.171875 L 34.65625 0 L 19.34375 0 L 19.34375 -1.171875 C 20.738281 -1.171875 21.804688 -1.320312 22.546875 -1.625 C 23.296875 -1.9375 23.832031 -2.492188 24.15625 -3.296875 C 24.476562 -4.109375 24.640625 -5.320312 24.640625 -6.9375 L 24.640625 -21.640625 C 24.640625 -23.035156 24.179688 -24.3125 23.265625 -25.46875 C 22.359375 -26.625 21.097656 -27.203125 19.484375 -27.203125 C 18.128906 -27.203125 16.84375 -26.835938 15.625 -26.109375 C 14.40625 -25.390625 13.097656 -24.289062 11.703125 -22.8125 L 11.703125 -6.9375 C 11.703125 -4.664062 12.070312 -3.144531 12.8125 -2.375 C 13.550781 -1.613281 14.835938 -1.210938 16.671875 -1.171875 L 16.671875 0 L 1.640625 0 L 1.640625 -1.171875 C 2.984375 -1.304688 3.984375 -1.546875 4.640625 -1.890625 C 5.296875 -2.242188 5.742188 -2.789062 5.984375 -3.53125 C 6.222656 -4.269531 6.34375 -5.335938 6.34375 -6.734375 L 6.34375 -23.015625 C 6.34375 -24.015625 6.125 -24.882812 5.6875 -25.625 C 5.25 -26.363281 4.550781 -26.734375 3.59375 -26.734375 C 3.15625 -26.734375 2.75 -26.65625 2.375 -26.5 C 2.007812 -26.351562 1.765625 -26.257812 1.640625 -26.21875 L 1.171875 -27.453125 L 10.59375 -31.046875 L 11.703125 -31.046875 Z M 11.703125 -24.640625 "/></g></g></g><g fill="#000000" fill-opacity="1"><g transform="translate(321.682663, 346.589839)"><g><path d="M 16.609375 -31.046875 C 19.046875 -31.046875 21.289062 -30.414062 23.34375 -29.15625 L 30.46875 -29.15625 C 31.070312 -29.15625 31.425781 -29.066406 31.53125 -28.890625 C 31.644531 -28.722656 31.703125 -28.265625 31.703125 -27.515625 C 31.703125 -26.867188 31.660156 -26.46875 31.578125 -26.3125 C 31.492188 -26.15625 31.234375 -26.078125 30.796875 -26.078125 L 25.828125 -26.078125 C 26.429688 -25.117188 26.863281 -24.222656 27.125 -23.390625 C 27.382812 -22.566406 27.515625 -21.613281 27.515625 -20.53125 C 27.515625 -18.519531 27.035156 -16.71875 26.078125 -15.125 C 25.117188 -13.539062 23.78125 -12.300781 22.0625 -11.40625 C 20.34375 -10.507812 18.394531 -10.0625 16.21875 -10.0625 C 14.820312 -10.0625 13.378906 -10.28125 11.890625 -10.71875 C 10.148438 -9.15625 9.28125 -7.847656 9.28125 -6.796875 C 9.28125 -6.234375 9.59375 -5.773438 10.21875 -5.421875 C 10.851562 -5.078125 12.175781 -4.90625 14.1875 -4.90625 L 21.640625 -4.90625 C 24.253906 -4.90625 26.539062 -4.335938 28.5 -3.203125 C 30.46875 -2.066406 31.453125 -0.390625 31.453125 1.828125 C 31.453125 3.921875 30.664062 5.894531 29.09375 7.75 C 27.519531 9.601562 25.4375 11.082031 22.84375 12.1875 C 20.25 13.300781 17.472656 13.859375 14.515625 13.859375 C 12.503906 13.859375 10.53125 13.5625 8.59375 12.96875 C 6.65625 12.382812 5.085938 11.613281 3.890625 10.65625 C 2.691406 9.695312 2.09375 8.71875 2.09375 7.71875 C 2.09375 6.882812 2.484375 5.890625 3.265625 4.734375 C 4.054688 3.578125 5.734375 1.71875 8.296875 -0.84375 C 6.117188 -1.5 5.03125 -2.566406 5.03125 -4.046875 C 5.03125 -5.222656 5.488281 -6.410156 6.40625 -7.609375 C 7.320312 -8.804688 8.609375 -10.0625 10.265625 -11.375 C 8.523438 -12.289062 7.171875 -13.539062 6.203125 -15.125 C 5.242188 -16.71875 4.765625 -18.453125 4.765625 -20.328125 C 4.765625 -22.335938 5.273438 -24.15625 6.296875 -25.78125 C 7.328125 -27.414062 8.742188 -28.703125 10.546875 -29.640625 C 12.359375 -30.578125 14.378906 -31.046875 16.609375 -31.046875 Z M 10.328125 -23.078125 C 10.328125 -21.460938 10.546875 -19.78125 10.984375 -18.03125 C 11.421875 -16.289062 12.160156 -14.800781 13.203125 -13.5625 C 14.253906 -12.320312 15.582031 -11.703125 17.1875 -11.703125 C 18.625 -11.703125 19.78125 -12.390625 20.65625 -13.765625 C 21.53125 -15.140625 21.96875 -16.894531 21.96875 -19.03125 C 21.96875 -20.332031 21.726562 -21.773438 21.25 -23.359375 C 20.769531 -24.953125 20.023438 -26.328125 19.015625 -27.484375 C 18.015625 -28.640625 16.734375 -29.21875 15.171875 -29.21875 C 13.859375 -29.21875 12.722656 -28.660156 11.765625 -27.546875 C 10.804688 -26.441406 10.328125 -24.953125 10.328125 -23.078125 Z M 20.265625 0.0625 L 17.84375 0.0625 C 15.882812 0.0625 14.28125 0.03125 13.03125 -0.03125 C 11.789062 -0.09375 10.71875 -0.253906 9.8125 -0.515625 C 8.800781 0.609375 8.054688 1.617188 7.578125 2.515625 C 7.097656 3.410156 6.859375 4.269531 6.859375 5.09375 C 6.859375 6.664062 7.9375 7.863281 10.09375 8.6875 C 12.257812 9.519531 14.863281 9.9375 17.90625 9.9375 C 20.09375 9.9375 22.054688 9.648438 23.796875 9.078125 C 25.535156 8.515625 26.90625 7.734375 27.90625 6.734375 C 28.914062 5.734375 29.421875 4.625 29.421875 3.40625 C 29.421875 2.007812 28.6875 1.113281 27.21875 0.71875 C 25.757812 0.320312 23.441406 0.101562 20.265625 0.0625 Z M 20.265625 0.0625 "/></g></g></g><g fill="#000000" fill-opacity="1"><g transform="translate(354.368473, 346.589839)"><g><path d="M 8.890625 -47.0625 C 9.847656 -47.0625 10.65625 -46.734375 11.3125 -46.078125 C 11.96875 -45.429688 12.296875 -44.648438 12.296875 -43.734375 C 12.296875 -42.773438 11.96875 -41.96875 11.3125 -41.3125 C 10.65625 -40.664062 9.847656 -40.34375 8.890625 -40.34375 C 7.972656 -40.34375 7.1875 -40.664062 6.53125 -41.3125 C 5.882812 -41.96875 5.5625 -42.773438 5.5625 -43.734375 C 5.5625 -44.648438 5.882812 -45.429688 6.53125 -46.078125 C 7.1875 -46.734375 7.972656 -47.0625 8.890625 -47.0625 Z M 11.765625 -6.796875 C 11.765625 -4.660156 12.113281 -3.195312 12.8125 -2.40625 C 13.507812 -1.625 14.644531 -1.210938 16.21875 -1.171875 L 16.21875 0 L 1.5 0 L 1.5 -1.171875 C 3.289062 -1.171875 4.554688 -1.582031 5.296875 -2.40625 C 6.035156 -3.238281 6.40625 -4.75 6.40625 -6.9375 L 6.40625 -22.75 C 6.40625 -23.925781 6.144531 -24.882812 5.625 -25.625 C 5.101562 -26.363281 4.296875 -26.734375 3.203125 -26.734375 C 2.722656 -26.734375 2.285156 -26.625 1.890625 -26.40625 L 1.5 -27.59375 L 10.59375 -31.046875 L 11.765625 -31.046875 Z M 11.765625 -6.796875 "/></g></g></g><g fill="#000000" fill-opacity="1"><g transform="translate(372.084183, 346.589839)"><g><path d="M 11.703125 -24.640625 C 13.972656 -27.085938 15.828125 -28.765625 17.265625 -29.671875 C 18.703125 -30.585938 20.289062 -31.046875 22.03125 -31.046875 C 23.945312 -31.046875 25.492188 -30.535156 26.671875 -29.515625 C 27.847656 -28.492188 28.695312 -27.238281 29.21875 -25.75 C 29.738281 -24.269531 30 -22.8125 30 -21.375 L 30 -6.9375 C 30 -4.707031 30.347656 -3.210938 31.046875 -2.453125 C 31.742188 -1.691406 32.945312 -1.265625 34.65625 -1.171875 L 34.65625 0 L 19.34375 0 L 19.34375 -1.171875 C 20.738281 -1.171875 21.804688 -1.320312 22.546875 -1.625 C 23.296875 -1.9375 23.832031 -2.492188 24.15625 -3.296875 C 24.476562 -4.109375 24.640625 -5.320312 24.640625 -6.9375 L 24.640625 -21.640625 C 24.640625 -23.035156 24.179688 -24.3125 23.265625 -25.46875 C 22.359375 -26.625 21.097656 -27.203125 19.484375 -27.203125 C 18.128906 -27.203125 16.84375 -26.835938 15.625 -26.109375 C 14.40625 -25.390625 13.097656 -24.289062 11.703125 -22.8125 L 11.703125 -6.9375 C 11.703125 -4.664062 12.070312 -3.144531 12.8125 -2.375 C 13.550781 -1.613281 14.835938 -1.210938 16.671875 -1.171875 L 16.671875 0 L 1.640625 0 L 1.640625 -1.171875 C 2.984375 -1.304688 3.984375 -1.546875 4.640625 -1.890625 C 5.296875 -2.242188 5.742188 -2.789062 5.984375 -3.53125 C 6.222656 -4.269531 6.34375 -5.335938 6.34375 -6.734375 L 6.34375 -23.015625 C 6.34375 -24.015625 6.125 -24.882812 5.6875 -25.625 C 5.25 -26.363281 4.550781 -26.734375 3.59375 -26.734375 C 3.15625 -26.734375 2.75 -26.65625 2.375 -26.5 C 2.007812 -26.351562 1.765625 -26.257812 1.640625 -26.21875 L 1.171875 -27.453125 L 10.59375 -31.046875 L 11.703125 -31.046875 Z M 11.703125 -24.640625 "/></g></g></g><g fill="#000000" fill-opacity="1"><g transform="translate(408.169326, 346.589839)"><g><path d="M 15.359375 -31.046875 C 18.765625 -31.046875 21.519531 -29.910156 23.625 -27.640625 C 25.738281 -25.378906 26.796875 -22.441406 26.796875 -18.828125 L 6.28125 -18.828125 L 6.28125 -17.984375 C 6.28125 -15.671875 6.734375 -13.457031 7.640625 -11.34375 C 8.554688 -9.226562 9.84375 -7.515625 11.5 -6.203125 C 13.15625 -4.898438 15.03125 -4.25 17.125 -4.25 C 21.269531 -4.25 24.171875 -6.554688 25.828125 -11.171875 L 26.796875 -10.65625 C 26.097656 -7.082031 24.660156 -4.257812 22.484375 -2.1875 C 20.304688 -0.113281 17.691406 0.921875 14.640625 0.921875 C 12.378906 0.921875 10.273438 0.332031 8.328125 -0.84375 C 6.390625 -2.019531 4.820312 -3.785156 3.625 -6.140625 C 2.425781 -8.492188 1.828125 -11.347656 1.828125 -14.703125 C 1.828125 -17.929688 2.394531 -20.785156 3.53125 -23.265625 C 4.664062 -25.753906 6.253906 -27.671875 8.296875 -29.015625 C 10.347656 -30.367188 12.703125 -31.046875 15.359375 -31.046875 Z M 13.53125 -28.765625 C 11.695312 -28.765625 10.113281 -28.046875 8.78125 -26.609375 C 7.457031 -25.171875 6.664062 -23.253906 6.40625 -20.859375 L 20.0625 -20.859375 C 19.976562 -23.210938 19.378906 -25.117188 18.265625 -26.578125 C 17.160156 -28.035156 15.582031 -28.765625 13.53125 -28.765625 Z M 13.53125 -28.765625 "/></g></g></g><g fill="#000000" fill-opacity="1"><g transform="translate(436.802103, 346.589839)"><g><path d="M 15.359375 -31.046875 C 18.765625 -31.046875 21.519531 -29.910156 23.625 -27.640625 C 25.738281 -25.378906 26.796875 -22.441406 26.796875 -18.828125 L 6.28125 -18.828125 L 6.28125 -17.984375 C 6.28125 -15.671875 6.734375 -13.457031 7.640625 -11.34375 C 8.554688 -9.226562 9.84375 -7.515625 11.5 -6.203125 C 13.15625 -4.898438 15.03125 -4.25 17.125 -4.25 C 21.269531 -4.25 24.171875 -6.554688 25.828125 -11.171875 L 26.796875 -10.65625 C 26.097656 -7.082031 24.660156 -4.257812 22.484375 -2.1875 C 20.304688 -0.113281 17.691406 0.921875 14.640625 0.921875 C 12.378906 0.921875 10.273438 0.332031 8.328125 -0.84375 C 6.390625 -2.019531 4.820312 -3.785156 3.625 -6.140625 C 2.425781 -8.492188 1.828125 -11.347656 1.828125 -14.703125 C 1.828125 -17.929688 2.394531 -20.785156 3.53125 -23.265625 C 4.664062 -25.753906 6.253906 -27.671875 8.296875 -29.015625 C 10.347656 -30.367188 12.703125 -31.046875 15.359375 -31.046875 Z M 13.53125 -28.765625 C 11.695312 -28.765625 10.113281 -28.046875 8.78125 -26.609375 C 7.457031 -25.171875 6.664062 -23.253906 6.40625 -20.859375 L 20.0625 -20.859375 C 19.976562 -23.210938 19.378906 -25.117188 18.265625 -26.578125 C 17.160156 -28.035156 15.582031 -28.765625 13.53125 -28.765625 Z M 13.53125 -28.765625 "/></g></g></g><g fill="#000000" fill-opacity="1"><g transform="translate(465.434881, 346.589839)"><g><path d="M 12.09375 -24.90625 L 12.21875 -24.90625 C 13.351562 -26.914062 14.582031 -28.441406 15.90625 -29.484375 C 17.238281 -30.523438 18.734375 -31.046875 20.390625 -31.046875 C 21.566406 -31.046875 22.523438 -30.6875 23.265625 -29.96875 C 24.015625 -29.25 24.390625 -28.367188 24.390625 -27.328125 C 24.390625 -26.492188 24.09375 -25.796875 23.5 -25.234375 C 22.914062 -24.671875 22.253906 -24.390625 21.515625 -24.390625 C 20.898438 -24.390625 20.394531 -24.507812 20 -24.75 C 19.613281 -24.988281 19.222656 -25.300781 18.828125 -25.6875 C 18.742188 -25.726562 18.59375 -25.859375 18.375 -26.078125 C 18.15625 -26.296875 17.925781 -26.457031 17.6875 -26.5625 C 17.445312 -26.675781 17.195312 -26.734375 16.9375 -26.734375 C 15.925781 -26.734375 15.0625 -26.328125 14.34375 -25.515625 C 13.625 -24.710938 12.875 -23.617188 12.09375 -22.234375 L 12.09375 -6.9375 C 12.09375 -5.226562 12.273438 -3.957031 12.640625 -3.125 C 13.015625 -2.300781 13.59375 -1.769531 14.375 -1.53125 C 15.164062 -1.289062 16.320312 -1.171875 17.84375 -1.171875 L 17.84375 0 L 1.765625 0 L 1.765625 -1.171875 L 2.09375 -1.171875 C 3.707031 -1.171875 4.882812 -1.5625 5.625 -2.34375 C 6.363281 -3.132812 6.734375 -4.578125 6.734375 -6.671875 L 6.734375 -21.578125 C 6.734375 -23.617188 6.515625 -24.957031 6.078125 -25.59375 C 5.640625 -26.226562 4.878906 -26.546875 3.796875 -26.546875 C 3.140625 -26.546875 2.59375 -26.414062 2.15625 -26.15625 L 1.765625 -27.265625 L 10.921875 -31.046875 L 12.09375 -31.046875 Z M 12.09375 -24.90625 "/></g></g></g><g fill="#000000" fill-opacity="1"><g transform="translate(490.602967, 346.589839)"><g><path d="M 8.890625 -47.0625 C 9.847656 -47.0625 10.65625 -46.734375 11.3125 -46.078125 C 11.96875 -45.429688 12.296875 -44.648438 12.296875 -43.734375 C 12.296875 -42.773438 11.96875 -41.96875 11.3125 -41.3125 C 10.65625 -40.664062 9.847656 -40.34375 8.890625 -40.34375 C 7.972656 -40.34375 7.1875 -40.664062 6.53125 -41.3125 C 5.882812 -41.96875 5.5625 -42.773438 5.5625 -43.734375 C 5.5625 -44.648438 5.882812 -45.429688 6.53125 -46.078125 C 7.1875 -46.734375 7.972656 -47.0625 8.890625 -47.0625 Z M 11.765625 -6.796875 C 11.765625 -4.660156 12.113281 -3.195312 12.8125 -2.40625 C 13.507812 -1.625 14.644531 -1.210938 16.21875 -1.171875 L 16.21875 0 L 1.5 0 L 1.5 -1.171875 C 3.289062 -1.171875 4.554688 -1.582031 5.296875 -2.40625 C 6.035156 -3.238281 6.40625 -4.75 6.40625 -6.9375 L 6.40625 -22.75 C 6.40625 -23.925781 6.144531 -24.882812 5.625 -25.625 C 5.101562 -26.363281 4.296875 -26.734375 3.203125 -26.734375 C 2.722656 -26.734375 2.285156 -26.625 1.890625 -26.40625 L 1.5 -27.59375 L 10.59375 -31.046875 L 11.765625 -31.046875 Z M 11.765625 -6.796875 "/></g></g></g><g fill="#000000" fill-opacity="1"><g transform="translate(508.318688, 346.589839)"><g><path d="M 11.703125 -24.640625 C 13.972656 -27.085938 15.828125 -28.765625 17.265625 -29.671875 C 18.703125 -30.585938 20.289062 -31.046875 22.03125 -31.046875 C 23.945312 -31.046875 25.492188 -30.535156 26.671875 -29.515625 C 27.847656 -28.492188 28.695312 -27.238281 29.21875 -25.75 C 29.738281 -24.269531 30 -22.8125 30 -21.375 L 30 -6.9375 C 30 -4.707031 30.347656 -3.210938 31.046875 -2.453125 C 31.742188 -1.691406 32.945312 -1.265625 34.65625 -1.171875 L 34.65625 0 L 19.34375 0 L 19.34375 -1.171875 C 20.738281 -1.171875 21.804688 -1.320312 22.546875 -1.625 C 23.296875 -1.9375 23.832031 -2.492188 24.15625 -3.296875 C 24.476562 -4.109375 24.640625 -5.320312 24.640625 -6.9375 L 24.640625 -21.640625 C 24.640625 -23.035156 24.179688 -24.3125 23.265625 -25.46875 C 22.359375 -26.625 21.097656 -27.203125 19.484375 -27.203125 C 18.128906 -27.203125 16.84375 -26.835938 15.625 -26.109375 C 14.40625 -25.390625 13.097656 -24.289062 11.703125 -22.8125 L 11.703125 -6.9375 C 11.703125 -4.664062 12.070312 -3.144531 12.8125 -2.375 C 13.550781 -1.613281 14.835938 -1.210938 16.671875 -1.171875 L 16.671875 0 L 1.640625 0 L 1.640625 -1.171875 C 2.984375 -1.304688 3.984375 -1.546875 4.640625 -1.890625 C 5.296875 -2.242188 5.742188 -2.789062 5.984375 -3.53125 C 6.222656 -4.269531 6.34375 -5.335938 6.34375 -6.734375 L 6.34375 -23.015625 C 6.34375 -24.015625 6.125 -24.882812 5.6875 -25.625 C 5.25 -26.363281 4.550781 -26.734375 3.59375 -26.734375 C 3.15625 -26.734375 2.75 -26.65625 2.375 -26.5 C 2.007812 -26.351562 1.765625 -26.257812 1.640625 -26.21875 L 1.171875 -27.453125 L 10.59375 -31.046875 L 11.703125 -31.046875 Z M 11.703125 -24.640625 "/></g></g></g><g fill="#000000" fill-opacity="1"><g transform="translate(544.403831, 346.589839)"><g><path d="M 16.609375 -31.046875 C 19.046875 -31.046875 21.289062 -30.414062 23.34375 -29.15625 L 30.46875 -29.15625 C 31.070312 -29.15625 31.425781 -29.066406 31.53125 -28.890625 C 31.644531 -28.722656 31.703125 -28.265625 31.703125 -27.515625 C 31.703125 -26.867188 31.660156 -26.46875 31.578125 -26.3125 C 31.492188 -26.15625 31.234375 -26.078125 30.796875 -26.078125 L 25.828125 -26.078125 C 26.429688 -25.117188 26.863281 -24.222656 27.125 -23.390625 C 27.382812 -22.566406 27.515625 -21.613281 27.515625 -20.53125 C 27.515625 -18.519531 27.035156 -16.71875 26.078125 -15.125 C 25.117188 -13.539062 23.78125 -12.300781 22.0625 -11.40625 C 20.34375 -10.507812 18.394531 -10.0625 16.21875 -10.0625 C 14.820312 -10.0625 13.378906 -10.28125 11.890625 -10.71875 C 10.148438 -9.15625 9.28125 -7.847656 9.28125 -6.796875 C 9.28125 -6.234375 9.59375 -5.773438 10.21875 -5.421875 C 10.851562 -5.078125 12.175781 -4.90625 14.1875 -4.90625 L 21.640625 -4.90625 C 24.253906 -4.90625 26.539062 -4.335938 28.5 -3.203125 C 30.46875 -2.066406 31.453125 -0.390625 31.453125 1.828125 C 31.453125 3.921875 30.664062 5.894531 29.09375 7.75 C 27.519531 9.601562 25.4375 11.082031 22.84375 12.1875 C 20.25 13.300781 17.472656 13.859375 14.515625 13.859375 C 12.503906 13.859375 10.53125 13.5625 8.59375 12.96875 C 6.65625 12.382812 5.085938 11.613281 3.890625 10.65625 C 2.691406 9.695312 2.09375 8.71875 2.09375 7.71875 C 2.09375 6.882812 2.484375 5.890625 3.265625 4.734375 C 4.054688 3.578125 5.734375 1.71875 8.296875 -0.84375 C 6.117188 -1.5 5.03125 -2.566406 5.03125 -4.046875 C 5.03125 -5.222656 5.488281 -6.410156 6.40625 -7.609375 C 7.320312 -8.804688 8.609375 -10.0625 10.265625 -11.375 C 8.523438 -12.289062 7.171875 -13.539062 6.203125 -15.125 C 5.242188 -16.71875 4.765625 -18.453125 4.765625 -20.328125 C 4.765625 -22.335938 5.273438 -24.15625 6.296875 -25.78125 C 7.328125 -27.414062 8.742188 -28.703125 10.546875 -29.640625 C 12.359375 -30.578125 14.378906 -31.046875 16.609375 -31.046875 Z M 10.328125 -23.078125 C 10.328125 -21.460938 10.546875 -19.78125 10.984375 -18.03125 C 11.421875 -16.289062 12.160156 -14.800781 13.203125 -13.5625 C 14.253906 -12.320312 15.582031 -11.703125 17.1875 -11.703125 C 18.625 -11.703125 19.78125 -12.390625 20.65625 -13.765625 C 21.53125 -15.140625 21.96875 -16.894531 21.96875 -19.03125 C 21.96875 -20.332031 21.726562 -21.773438 21.25 -23.359375 C 20.769531 -24.953125 20.023438 -26.328125 19.015625 -27.484375 C 18.015625 -28.640625 16.734375 -29.21875 15.171875 -29.21875 C 13.859375 -29.21875 12.722656 -28.660156 11.765625 -27.546875 C 10.804688 -26.441406 10.328125 -24.953125 10.328125 -23.078125 Z M 20.265625 0.0625 L 17.84375 0.0625 C 15.882812 0.0625 14.28125 0.03125 13.03125 -0.03125 C 11.789062 -0.09375 10.71875 -0.253906 9.8125 -0.515625 C 8.800781 0.609375 8.054688 1.617188 7.578125 2.515625 C 7.097656 3.410156 6.859375 4.269531 6.859375 5.09375 C 6.859375 6.664062 7.9375 7.863281 10.09375 8.6875 C 12.257812 9.519531 14.863281 9.9375 17.90625 9.9375 C 20.09375 9.9375 22.054688 9.648438 23.796875 9.078125 C 25.535156 8.515625 26.90625 7.734375 27.90625 6.734375 C 28.914062 5.734375 29.421875 4.625 29.421875 3.40625 C 29.421875 2.007812 28.6875 1.113281 27.21875 0.71875 C 25.757812 0.320312 23.441406 0.101562 20.265625 0.0625 Z M 20.265625 0.0625 "/></g></g></g></svg>